<?xml version="1.0" encoding="UTF-8"?><svg xmlns="http://www.w3.org/2000/svg" width="1044.27" height="1331.5" viewBox="0 0 1044.27 1331.5"><defs><style>.cls-1{fill:#7f8bc6;}.cls-2{fill:#e1bdad;}.cls-3{fill:none;}.cls-4{fill:#5d6083;}.cls-5{fill:#dcd8cc;}.cls-6{fill:#f9f5e9;}.cls-7{fill:#614b3a;}.cls-8{fill:#cda481;}.cls-9{fill:#604a39;}.cls-10{fill:#a4b4d8;}</style></defs><g id="_图层_4"><path class="cls-3" d="M131.38,448.17c29.48-36.55,63.61-68.91,101.45-96.1,5.62-4.04,12.65-5.61,19.47-4.43l105.28,18.29c.87.15,1.74.26,2.62.32l183.08,12.81c.49.03.99.05,1.48.06l118.52,1.49c1.26.02,2.51-.06,3.76-.23l101.04-13.52c3.49-.47,6.84-1.64,9.86-3.45l14.09-5.51c8.95-5.36,16-1.26,24.38,4.95,129.6,96.18,217.71,247.54,217.71,425.52,0,22.73-1.38,45.12-4.05,67.09"/><path class="cls-5" d="M132.34,448.89l-.78-.63C57.3,540.34,10.35,658.84,10.35,788.32c0,292.87,231.96,536.57,514.1,536.57,260.25,0,473.39-208.13,505.16-469.32l-.12-.23-46.69,45.73c-13.91,13.62-29.23,25.72-45.7,36.11l-52.18,32.89c-32.32,20.37-67.56,35.68-104.5,45.4l-82.98,21.84c-31.33,8.25-63.59,12.42-95.98,12.42h-49.42l23.55-47.4,170.41-107.94,50.54-32.25,54.76-41.14c7.93-5.96,12.6-15.3,12.6-25.22v-12.62c0-7.24-4.08-13.87-10.56-17.12l-28.61-14.38-78.48-37.33-39.89-30.54-387.22,15.68-157.09,72.19-18.17-4.45c-5.99-1.47-10.57-6.29-11.73-12.35l-1.17-6.13c-1.04-5.45.07-11.09,3.1-15.75l16.31-25.08-11.54-10.37-11.62-4.4c-4.43-1.68-8.06-4.98-10.14-9.24l-4.88-9.99c-2.55-5.22-3.79-10.99-3.61-16.8l2.23-72.94c.62-20.1,2.87-40.13,6.73-59.87l14.76-75.39"/><path class="cls-6" d="M1029.64,855.46l-.12-.23-46.69,45.73c-13.91,13.62-29.23,25.72-45.7,36.11l-52.18,32.89c-32.32,20.37-67.56,35.68-104.5,45.4l-82.98,21.84c-31.33,8.25-63.59,12.42-95.98,12.42h-49.42l23.55-47.4,170.41-107.94,50.54-32.25,54.76-41.14c7.93-5.96,12.6-15.3,12.6-25.22v-12.62c0-7.24-4.08-13.87-10.56-17.12l-28.61-14.38-78.48-37.33-39.89-30.54-387.22,15.68-157.09,72.19-18.17-4.45c-5.99-1.47-10.57-6.29-11.73-12.35l-1.17-6.13c-1.04-5.45.07-11.09,3.1-15.75l16.31-25.08-11.54-10.37-11.62-4.4c-4.43-1.68-8.06-4.98-10.14-9.24l-4.88-9.99c-2.55-5.22-3.79-10.99-3.61-16.8l2.23-72.94c.62-20.1,2.87-40.13,6.73-59.87l14.76-75.39,64.17-63.84,83.05-77.71,483.05-8.38,71.62,70.86,91.43,94.23,67.05,106.52,21.33,53.73,19.81,84.57,5.33,112.76-9.58,33.95Z"/><path class="cls-2" d="M719.63,636.37c9.04-1.7,29.56,0,40,0,1.49,0,1.51-2.93,1.32-4.27s-10.13-21.7-11.42-23.63c-44.68-66.88-152.43-34.25-200.88,11.92-9.17,8.74-30.39,42.94-42.19,41.92-9.42-.81-34.37-38.32-43.81-46.96-43.99-40.27-99.05-49.51-153.79-25.74-3.71,1.61-14.24,5.52-15.72,6.28-11.76,6.1-36.86,26-43.88,37.12-.8,1.26-7.11,13.44-6.14,14.35,1.78,1.67,39.97-10.89,47.51-11.07,32.32-.75,57.19,26.54,47.67,58.76-3.45,11.69-25.81,36.13-35.18,44.82-6.82,6.33-46.13,34.28-47.81,37.19-4.72,8.22,8.36,40.65,13.1,49.01,39.39,69.36,95.72,104.75,154.66,152.84,36.36,29.67,60.33,70.27,75.05,114.46,4.73-10.18,9.54-22.49,15.57-31.92,28.43-44.5,69.9-82.11,111.93-114.07,57.03-43.36,137.25-79.75,154.05-155.95,3.6-16.33-1.06-18.34-14.21-26.91-26.33-17.16-66.28-32.63-75.03-68.97-4.86-20.17,6.7-54.96,29.18-59.18Z"/><g id="_图层_3"><polygon class="cls-5" points="205.56 1212.32 124.8 1238.99 108.42 1267.94 143.85 1290.8 245.94 1298.8 328.57 1287.75 259.66 1252.7 205.56 1212.32"/><polygon class="cls-5" points="841.08 1212.69 727.91 1286.8 791.31 1299.24 895.69 1287.56 912.96 1260.89 875.37 1227.62 841.08 1212.69"/><path class="cls-8" d="M297.7,636.59l1.69-9.55c1.99-11.21,6.71-21.75,13.74-30.69l9.44-12-70.06,17.01-25.9,60.42,63.65-14.68,29.71,6.86,13.71,31.24-39.62,57.14-60.06,38.52,60.06,109.29,147.05,123.43,54.1,96,124.39-140.95,133.9-101.33,42.67-67.81-23.37-38.35-58.65-29.61,14.61,25.05c5.66,9.7,14.26,17.35,24.55,21.83l5.66,2.47c4.99,2.17,8.21,7.1,8.21,12.54h0c0,6.23-3.37,11.98-8.8,15.03l-38.09,21.36c-22.88,12.83-47.97,21.26-73.96,24.85l-61.75,8.53c-38.32,5.29-77.33-1.53-111.58-19.52l-34.68-18.21c-32.27-16.94-60.24-41.03-81.78-70.43l-29.97-40.9,4.84-48.73-33.7-28.8Z"/></g><polyline class="cls-4" points="340.22 253.04 320.74 242.82 267.22 263.14 205.89 303.94 209.7 324.89 352.55 359.94 456.55 370.61 645.12 377.08 745.31 364.89 846.65 330.23 843.22 303.18 704.55 248.32 689.02 258.57 340.22 253.04"/><path class="cls-10" d="M676.19,32.58l17.16,4.25,29.35,6.17-16.57,142.71-17.12,72.85-52.38,11.56c-3.95.87-7.94,1.57-11.95,2.08l-49.57,6.36-182.69-27.13-33.26-187.43,89.03-34.23,73.94-24.05,97.47,8.57,56.59,18.29Z"/><path class="cls-1" d="M359.16,36.9l-37.9,11.49v128.08l9.66,55.24,9.29,21.33,17.58,8.24c14.72,6.89,30.59,10.99,46.81,12.07l86.48,5.78c9.54.64,19.11.85,28.67.64l55.37-1.21-40.62-18.21c-40.38-18.11-71.61-51.93-86.46-93.62l-11.59-32.55-1.79-29.89c-1.33-22.23,2.08-44.49,10.01-65.3l3.52-9.23-89.03,7.13"/><path class="cls-7" d="M694.68,41.34l12.06,5.9-.57,57.61-4.57,56-2.68,36.71-9.89,61,17.71-48,10.08-45.84c5.84-26.54,9.54-53.51,11.08-80.64l2.76-48.78h-34.59c-3.36,0-4.41,4.54-1.39,6.02Z"/><path class="cls-7" d="M311.73,51.95l-2.71,11.76v66.29l4.86,40,10,56.57,19.43,36.57-14.29-58.86-2.86-38.29v-97.71l-2.53-15.93c-1.05-6.59-10.41-6.91-11.91-.41Z"/><path class="cls-7" d="M790.89,360.88c8.95-5.36,16-1.26,24.38,4.95,129.6,96.18,217.71,247.54,217.71,425.52,0,292.87-228.72,530.29-510.86,530.29S11.28,1084.23,11.28,791.36c0-180.88,87.24-340.6,220.43-436.31,5.62-4.04,12.65-5.61,19.47-4.43l105.28,18.29c.87.15,1.74.26,2.62.32l183.08,12.81c.49.03.99.05,1.48.06l118.52,1.49c1.26.02,2.51-.06,3.76-.23l101.04-13.52c3.49-.47,6.84-1.64,9.86-3.45l14.09-5.51ZM821.82,345.42l11.94-4.06,18.79-9.14,7.37-10.92-1.78-9.14-8.89-10.92-17.78-9.4-32.25-16.51-42.92-13.46-40.89-17.02-16,2.29,4.83,5.08,44.44,19.05,41.9,18.29,30.48,16.25-26.67,9.4-60.7,19.3-58.16,9.4,19.56,3.56,70.6-7.62,54.6-16.25,13.71-10.67,6.35,3.56-3.05,10.41-37.08,14.48-119.62,27.17-127.24,1.52-103.11-4.06-104.38-13.71-96.76-23.37-32-14.48-2.79-6.6,4.83-4.57,21.33-13.46,24.63-14.48,17.78-9.9,19.56-9.65,10.41-6.35,9.4-3.05-1.52-3.56-4.57-.25-20.06,3.05-28.44,12.95-26.86,15.68-36.38,22.86-11.05,18.1v8.38l8.38,7.05,23.62,7.14-.37,7.75C89.04,443.2,0,606.06,0,790.47c0,298.8,233.77,541.03,522.13,541.03s522.13-242.23,522.13-541.03c0-183.11-87.78-344.97-222.12-442.86l-.33-2.19Z"/></g><g id="_图层_2"><path class="cls-7" d="M510.94.68c39.69-2.63,109.01,2.2,145.73,17.65,7.2,3.03,33.38,18.57,10.03,14.96-21.26-3.28-44.44-13.14-67.1-15.89-76.18-9.27-132.73,12.18-205,19.93-7.63.82-34.62,12.61-35.43-.43,15.95-6.23,30.88-13.83,47.52-18.48,29.09-8.12,74.12-15.74,104.26-17.74Z"/><path class="cls-9" d="M516.49,621.72c56.96-56.28,93.19-85.16,179.86-70.07,65.48,11.4,67.98,37.87,98.96,87.04,10.36,16.44,32.37,19.4,49.06,25.94,6.21,2.44,47.12,17.39,48.23,19.76,6.49,13.88-13.29,8.9-19.25,7.26-30.36-8.34-63.72-30.63-94.88-37.12-62.16-12.93-98.43,10.27-51.33,67.33l108.96,75.01c-6.23,8.75-28.87-9.34-32.98-7.03-1.82,1.02-3.32,25.82-4.46,30.55-15.31,63.18-84.94,93.8-132.46,128.54-58.6,42.82-111.87,92.39-156.07,149.93-6.72,8.75-11.95,33.7-25.2,8.21-21.75-41.84-27.88-65.83-65.33-99.67-48.57-43.89-97.76-69.13-141.43-122.57-22.72-27.81-38.07-53.25-46.02-89-8.02,1.96-13.32,8.18-20,12.53,3.23-18.84,26.71-28.98,39.62-41.36,8.9-8.54,71.51-70.18,73.41-75.09,4.16-10.75-7.27-31.66-18.76-34.32s-48.78,7.64-60.84,11.71c-24.41,8.24-85.19,40.68-106.93,40.14-2.77-.07-13.55-3.41-13.57-6.58-.02-4.17,10.81-4.34,13.62-5.44,9.03-3.55,73.5-31.66,75.95-35.05,3.94-5.46,1.86-12.58,4.01-18.99,31.07-92.42,154.44-122.04,231.98-66.02,11.22,8.11,47.48,50.26,52.18,51.86,9.47,3.22,9.48-3.37,13.67-7.51ZM719.63,636.37c9.04-1.7,29.56,0,40,0,1.49,0,1.51-2.93,1.32-4.27-.19-1.3-10.13-21.7-11.42-23.63-44.68-66.88-152.43-34.25-200.88,11.92-9.17,8.74-30.39,42.94-42.19,41.92-9.42-.81-34.37-38.32-43.81-46.96-43.99-40.27-99.05-49.51-153.79-25.74-3.71,1.61-14.24,5.52-15.72,6.28-11.76,6.1-36.86,26-43.88,37.12-.8,1.26-7.11,13.44-6.14,14.35,1.78,1.67,39.97-10.89,47.51-11.07,32.32-.75,57.19,26.54,47.67,58.76-3.45,11.69-25.81,36.13-35.18,44.82-6.82,6.33-46.13,34.28-47.81,37.19-4.72,8.22,8.36,40.65,13.1,49.01,39.39,69.36,95.72,104.75,154.66,152.84,36.36,29.67,60.33,70.27,75.05,114.46,4.73-10.18,9.54-22.49,15.57-31.92,28.43-44.5,69.9-82.11,111.93-114.07,57.03-43.36,137.25-79.75,154.05-155.95,3.6-16.33-1.06-18.34-14.21-26.91-26.33-17.16-66.28-32.63-75.03-68.97-4.86-20.17,6.7-54.96,29.18-59.18Z"/><path class="cls-9" d="M393.94,400.67c12.59-1.75,44.7,2.99,52.02,14.37,9.06,14.1-5.22,21.94-18.36,21.35-6.37-.29-41.31-8.95-45.77-12.23-9.91-7.3.51-21.89,12.11-23.5Z"/><path class="cls-9" d="M614.94,401.68c31.67-2.72,26.53,18.09,2.9,28.9-11.18,5.12-52.15,19.86-48.27-4.26,2.22-13.77,33.39-23.61,45.37-24.64Z"/><path class="cls-9" d="M602.9,464.58c19.1-3.33,21.63,30.11,8.54,34.59-15.45,5.29-23.75-31.94-8.54-34.59Z"/><path class="cls-9" d="M490.85,508.59c3.18-.99,39.84,3.88,40.78,5.76,7.9,15.78-31.6,11.6-38.35,9.36-7.62-2.53-11.34-12.35-2.43-15.12Z"/><path class="cls-9" d="M418.85,464.59c21.97-7.02,21.33,45.44-2.08,28.65-9.33-6.69-7.76-25.5,2.08-28.65Z"/><path class="cls-7" d="M720.01,1290.38l23.81,8.13c2.2.59,16.96,4.22,19.24,4.22h59.69c.84,0,1.68-.04,2.51-.12l60.08-5.78c3.11-.3,6.14-1.15,8.96-2.5l9.18-4.41c8.19-3.94,13.68-11.91,14.44-20.96l.03-.34c.66-7.89-2.2-15.59-7.81-21.07-6.38-6.23-13.86-13.57-13.86-13.57-2.61-2.56-5.72-4.55-9.14-5.83l-39.35-15.45-9.67,7.99,13.99,5.99c2.76.58,5.43,1.52,7.95,2.8l14.13,7.16c4.25,2.15,8.24,4.78,11.89,7.84l6.66,4.52c.37.29,6.1,2.57,9.96,9.86h0c1.71,5.64-.18,11.75-4.78,15.43h0s-19.63,8.24-19.63,8.24c-4.49,1.89-9.25,3.07-14.11,3.51l-63.31,5.74c-3.19.19-21.63-.5-32.52-1.02-4.83-.23-9.61-1.02-14.26-2.37l-18.08-5.24-16,7.24Z"/><path class="cls-7" d="M117.16,1260.68c-1.31,2.86-.7,6.22,1.52,8.44l3.93,3.93,20.83,10.92,45.97,7.87,50.03,1.27,43.87-2.56c5.47-.32,10.68-2.47,14.78-6.12l3.73-3.32,26.77,11.99h-10.43c-5.89,0-11.76.67-17.5,2l-23.11,5.36-48.51,2.03-46.98-2.03-40.89-4.32-24.89-10.67-10.74-8.37c-2.71-2.11-4.42-5.25-4.73-8.68h0c-.67-7.46,1.66-14.88,6.47-20.61l19.09-13.53,22.41-11.28,24.19-5.58c3.68-.85,7.25-2.08,10.68-3.67l8.54-3.97,10.83,8.92-37.84,12.19c-14.04,4.52-27.23,11.37-39,20.27"/></g></svg>