<?xml version="1.0" encoding="UTF-8"?>
<svg id="_图层_1" xmlns="http://www.w3.org/2000/svg" version="1.1" viewBox="0 0 1923.36 1923.36">
  <!-- Generator: Adobe Illustrator 29.5.1, SVG Export Plug-In . SVG Version: 2.1.0 Build 141)  -->
  <defs>
    <style>
      .st0, .st1 {
        fill: #fff;
      }

      .st2 {
        fill: none;
      }

      .st2, .st1 {
        stroke: #fff;
        stroke-miterlimit: 10;
      }

      .st3 {
        fill: #ce0000;
      }

      .st1 {
        stroke-width: 2.55px;
      }
    </style>
  </defs>
  <path class="st3" d="M1608.8,650.01c.91-1.09,3.22-1.35,4.53-.77,1.02.45,9.62,7.6,10.43,8.83,3.42,5.16.78,4.52.19,8.55-.98,6.8,2.5,6.61,4.56,10.7,1.67,3.31,2.58,9.21,1.72,12.81-1.24,5.15-13.01,12.59-15.9,18.16,6.16.57,7.86,5.3,14.68,3.65,2.46-.59,4.19-3.6,7.39-2.68-.11,2.86.45,5.88-.42,8.7-1.23,4-9.48,9.55-9.2,12.83.18,2.16,4.56,6.27,5.36,10.09.96,4.54-.31,8.78,1.16,13.23,1.58,4.79,9.76,12.05,11.35,17.51.83,2.84-.82,4.5-.42,6.98.24,1.52,1.95,3.4,2.47,5.3,2.71,10.03.22,23.03-1.87,33.11-.63,3.04-6.73,9.86-6.51,10.76l11.06,5.27c1.49,6.22,5.08,12.89,3.14,19.5-.58,1.99-4.25,3.68-4.49,5.13-.16.95,1.94,3.38,2.37,5.07.52,2.06.06,4.38.59,6.13,1.16,3.82,10.24,5.07,11.15,8.05,1.04,5.85-.78,13.34.24,18.96.89,4.89,5.32,18.66,5.29,23.09-.03,3.53-3.54,7.26-2.51,14.44.4,2.82,1.94,3.44,2.49,5.18,2.72,8.69-5.77,10.85-5.37,14.88,3.55,5.08,6.82,7.26,8.46,13.71,3.65,14.34,8.62,19.43,12.94,32.17.47,1.39,2.06,2.11,2.45,3.32,1.79,5.7-3.69,11.69-2.68,17.04.47,2.49,5.95,6.55,7.42,10.85,2.16,6.33,1.65,16.54,3.35,23.53,1.1,4.52,6.17,20.54,7.95,24.68,1.14,2.64,4.15,5.37,4.84,7.64,2.3,7.49,1.01,11.85,8.16,17.77,1.01.84,3.32,1.19,3.62,1.65s2.55,8.83,2.83,10.12c.77,3.49-.28,8.35,1.71,11.73s13.09,8.15,15.38,11.49c1.7,2.48,1.01,4.57,2.26,6.38,2.55,3.71,10.07,1.78,13.93,2.38,2.53.4,4.31,2.37,6.83,2.76,3,.47,6.22-.36,9.33.27,1.99.4,8.01,3.14,8.38,5.05.72,3.68.47,20.8-.1,24.88-1.01,7.28-6.91,17.72-8.33,25.26-.82,4.37,1.26,12.98-2.55,15.68-3.23,2.29-11.71.38-15.74.06-1.91,4.26-8.36,14.08-7.67,18.39.36,2.23,4.88,7.43,5.8,10.54,1.64,5.56,1.07,9.92-1.95,14.79-4.62,7.47-6.86,3.37-12.06,6.17-3.07,1.65-7.54,8.57-12.37,10.67-4.91,2.13-11.97,2.65-16.69,6.31l-7.97-3.7c-1.6-2.3,7.1-8.04,5.27-12.4-1.75-4.18-13.44-8.47-13.74-12.18-.38-4.56,7.9-13.35,9.6-17.87,2.51-6.69,7.65-27.94,7.51-34.81-.07-3.28-.43-14.88-4.36-14.87-1.54,0-4.2,5.96-4.81,7.71-2.46,7.01-4.59,17.5-7.65,24.02-1.21,2.58-6.24,8.66-8.85,9.38-1.21.34-9.62,1.03-10.86.79-5.92-1.14-12.38-13.58-14.74-18.93-2.8-6.35-7.35-19.09-8.8-25.76-.95-4.37-2.32-11.01,1.42-14.03,5.19-4.2,7.75,3.15,12.27,4.19,2.8.64,11.15.55,14.25.25,7.85-.77,13.51-9.45,21.64-5.19.71,2.93,2.19,14.79,6.15,14.8,6.53.01-.39-17.04,7.6-16.34,4.19,4.28,1.84,10.27,1.91,15.36,8.53,3.92,13.14,2.96,12.08-7.23-.49-4.7-4.1-7.86-3.9-12.46.17-3.72,3.06-5.11,3.7-7.89,1.64-7.18-.89-13.09-7.74-15.85s-22.27-5.65-29.94-6.53c-6.84-.79-14.76,1-21.69-.39-1.57-1.09-1.1-14.36-.48-16.92,1.62-6.71,10.3-5.15,8.03-12.69-1.63-5.41-15.02-8.69-19.03-6-4.74,3.18,1.37,11.15,1.9,14.49.47,3,.47,17.09-.64,19.4-1.56,3.23-23.19,8.62-28.32,11.03-2.96,1.39-13,7.38-12.85,10.76,2.3,2.75,1.81,7.08,3.18,9.85.84,1.69,4.22,3.02,5.9,5.7,5.9,9.44-3.31,11.96-6.35,20.19-2.05,5.54,1.94,13.46-4.72,15.44-2.27.67-21.29-2.19-24.32-3.11-13.43-4.08-45.89-22.98-58.23-31.03-1.43-.94-7.31-4.77-7.95-5.5-2.48-2.8,2.36-7.45,3.72-10.66,3.42-8.11,5.71-12.99.13-21-1.36-1.96-7.65-8.03-9.69-9.51-3.62-2.63-8.76-2.89-9.48-7.83-.5-3.45,1.27-6.22.91-9.43s-3.75-7.16-3.89-10.67c-.21-5.07,1.73-11.01.95-17.18-.56-4.48-3.68-9.1-4.51-12.76-2.56-11.24-3.95-33.13-4.09-44.86-.04-3.52,1.26-8.04,1.01-10.52s-2.42-3.68-2.84-5.88c-.85-4.48.65-10.59-.1-15.26-.4-2.5-2.25-4.24-2.76-6.83-2.09-10.51-1.11-23.49-2.64-34.79-.63-4.69-.56-14.76-1.45-17.74-.66-2.21-4.59-3.69-5.36-7.12-1.19-5.28.64-12.58-.25-17.99-.42-2.54-2.39-3.71-2.79-5.85-1.13-6,.77-14.76-.02-21.1-.4-3.25-2.41-4.98-2.84-7.71-.84-5.24.72-11.92-.12-17.16-.4-2.53-2.36-4.31-2.76-6.83-1.58-9.89,1.08-23.25-.06-33.54-.39-3.52-2.39-5.86-2.82-8.7-.77-5,.68-11.23-.12-16.2-.4-2.53-2.36-4.3-2.76-6.83-.66-4.12.51-8.89-.28-13.16-.77-4.2-5.6-10.95-6.33-14.86-.51-2.73.85-4.68.74-7.3-.17-3.92-3.21-7.1-3.71-10.77-.38-2.84.51-5.34.34-7.6-1.61-21.3-4.43-45.97-8.16-67.13-.72-4.08-6.22-10.29-6.68-13.57-.4-2.85,1.52-4.14,1.66-5.81.22-2.53.12-6.32.32-9.44.36-5.64-1.9-15.1,2.35-18.76,6.02-5.18,17.62-4.92,24.38-1.34,3.79,2.01,15.57,13.18,17.09,13.62,2.14.64,17.3.63,20.01.25,2.3-.33,3.68-2.08,5.62-1.99,5.98.27,9.74,10.1,16.45,1.02,1.71-2.31,1.97-5.78,4.34-7.18,3.93-2.32,15.26-5.85,19.64-5.37,9.45,1.02,14.22,7.87,21.32,10.36s16.25-.97,22.19,4.68c.21,6.11,2.69,15.36-3.79,19-4.3,2.41-13.56,1.99-13.43,9.69.04,2.39,6.83,12,9.19,12.01.58,0,7.79-6.82,8.58-7.77,2.31-2.78,5.84-7.94,8.1-11.12.82-1.15.69-3.19,1.31-3.93h-.07ZM1607.59,791.8c-7.01.83-9.01,7.74-13.91,11.51-1.96,1.51-4.46,2.05-6.18,3.42-4.35,3.48-17.67,16.98-7.06,19.41,5.3,1.21,13.63,1.7,18.79,3.28,2.51.77,3.58,4.79,7.93,5.5,7,1.14,9.8-1.48,15.53-2.59,5.01-.98,9.91,2.21,9.93-4.54.03-9.41-8.02-5.36-12.11-9.09-1.61-1.47-4.43-6.76-6.24-9.12-1.28-1.68-4.6-3.93-5.23-5.33-1.5-3.3.45-8.73-1.47-12.46h.02,0ZM1628.49,913.93c-1.47-1.57-4.14-1.22-5.09.74l2.07,10.59c-3.2,3.45-6.64,6.26-8.27,10.94,8.59,5.8,33.04,32.02,25.05,3.77,1.57-5.39.31-10.5-4.4-13.82-1.6-1.12-4.3-1.35-5.08-2.12-1.21-1.2-2.96-8.7-4.28-10.11h0ZM1658.79,1023.43c1.53-1.71,4.41-2.48,5.67-5.38,4.12-9.48-13.41-9.08-18.98-8.41-4.39.53-9.74,5.25-12.37,8.75-7.92,10.54-.42,7.81,7.35,9.76,3.39.85,4.31,2.84,8.89,2.72,6.89-.19,6.13-3.74,9.44-7.44ZM1546.47,1069.45c-1.82,2.34-.97,5.74-1.66,8.43-.83,3.24-4.71,7.12-1.6,11.05,3.53,4.48,9.19-1.74,10.99-1.39,3.53.69,5.51,9.53,12.63,9.48,9.64-.06,5.53-18.58,13.74-22.72.64-3.39-10.01-14.1-12.83-16.64h-1.4c-2.05,8.21-16.33,7.21-19.88,11.78h.01Z"/>
  <path class="st3" d="M1237.75,962.03c1.96,1.06,3.99,4.4,7.75,5.19s8.35-.34,12.2.28c12.45,1.98,29.71,8.96,41.28,14.38,3.42,1.6,8.25,1.4,10.96,5.35,1.12,1.64,2.98,8.44,3.03,10.48.07,3.31-2.01,6.42-1.74,9.34.3,3.2,4.47,9.76,4.62,12.79.1,2.15-1.76,3.14-1.93,4.75-.89,8.24,1.13,18.95-.24,29.48-1.67,12.85.15,11.2,1.18,22.32,1.42,15.47-1.76,33.82-.01,48.96.43,3.72,2.83,8.22,2.94,12.5.08,3.4-1.46,5.52-.56,9.08.56,2.2,6.75,10.47,8.63,11.56,1.52.88,6.73,1.81,8.47,1.64,4.6-.44,6.59-6.86,11.52-8.64,3.02-1.09,6.2-.23,8.75-1.8,3.17-1.95,4.17-9.61,9.29-7.17,2.49,1.77-.52,18.41,1.39,22.6,2.43,5.35,12.44,8.03,17.12,10.71,3.9,2.23,3.12,5.61,9.67,4.63,3.34-.5,3.6-3.44,6.82,0,2.57,2.73,3.5,9.05,6.76,13.39,4.98,6.63,12.93,13.42,17.9,20.48,2.84,6.94-1.41,11.57-8.4,11.36-6.19-.19-6.96-4.17-11.09-7.22-9.44-6.96-13.04-9.81-23.65-14.74-19.95-9.27-29.48-18.62-52.67-23.15-13.54-2.65-12.77-2.07-25.04-8.55-9.59-5.06-26.12-7.38-37.02-10.01-5.15-1.25-10.04-1.79-14.41-2.87-2.51-.62-6.34-4.8-8.11-5.32-4.12-1.2-8.44.73-12.04.53s-6.41-2.85-9.09-3.4c-14.59-2.96-29.78-4.13-44.79-6.08-8.19-1.06-18.22-4.75-27.08-5.55-6.39-.58-17.2,1.33-22.38-1.62-2.02-1.15-2.69-3.69-5.38-4.22-4.03-.79-8.29,1.11-12.46,1-7.63-.2-18.24-3.37-25.92-3.89-8.44-.58-17.44.53-25.9-.02-9.69-.63-15.78-1.88-25.88-1.87-16.76.02-28.56-2.73-44.15-3.91-23.33-1.77-62.12-1.71-85.49,0-12.48.91-21.12,2.82-34.52,3.11-25.83.55-52.73,2.7-78.45,6.77-4.65.74-9.28,4.86-12.94,5.31-3.39.42-8.38.7-12.31,1.11-15.16,1.56-27.72.16-42.86,4.17-11.04,2.92-14.19,1.32-24.3,2.58-3.25.4-4.97,2.41-7.71,2.84-9.24,1.48-11.24-.64-21.45,3.5-18.85,7.65-42.58,8.22-61.41,18.25-2.23,1.19-5.21,4.59-6.53,4.99-10.4,3.11-21.51,6.27-31.2,11.99-8.82,5.2-14.18,15.44-25.99,12-9.95-2.89,1.31-21.61-.67-28.59l10.79,3.7c1.39-.26,15.62-14.76,15.94-15.91.48-1.71.05-2.31-.77-3.68-3.8-6.37-17.45-11.74-17.34-20.99,1.06-2.95,4-5.99,4.41-9.15.37-2.89-1.8-5.13-1.51-8.11.22-2.25,2.21-3.99,2.66-6.06,1.16-5.33,1.28-11.86,2.76-17.4,1.37-5.15,4.64-9.55,4.93-15.31.23-4.52-2.06-12.51-.6-16.83.87-2.56,12.75-4.43,15.6-6.48,2.15-5.58,9.99-8.54,7.83-15.32-.95-2.96-7.39-6.47-5.87-9.53,9.99-9.81,18.42-19.77,30.37-27.29,1.36-.86,3.48-.66,5.06-1.66,4.72-2.95,13.9-11.82,19.21-11.37,1.7.15,3.56,1.57,4.93,1.53,5.2-.15,8.89-13.75,12.97-15.44,3.17-1.32,8.34-.16,11.96-.52,7.18-.71,14.03-6.34,20.61-9.14,1.76-.75,4.2-.33,6.5-1.18,2.15-.79,6.28-4.91,6.69-5,4.74-1.05,10.92.93,16.44-.66,4.68-1.35,12.32-10.13,16.17-10.71.53-.08,6.66,2.97,7.53,3.65,2.63,2.07,4.16,5.62,3.15,8.93-.36,1.18-5.41,8.17-5.4,8.86,0,.49,3.58,3.09,3.39,6.56-.14,2.4-5.25,9.77-6.2,13.82-1.85,7.92-.48,15.92-1.29,23.66-1.74,16.51-5.92,28.41-.14,45.45.77,2.27-.56,5.61,2.79,6.77.77.15,2.43-.46,2.98-1.02,2.08-2.16,3.67-17.71,4.5-21.88,1.49-7.55,5.48-15.08,3.54-23.25l6.57-7.86c.08-2.77-3.51-4.41-3.86-6.8-.54-3.7,2.12-3.94,2.73-5.91,1.39-4.41-4.21-11.52-5.34-16.35-1.63-6.92-1.48-12.42,4.22-17.38,4.47-3.89,15.87-4.75,20.52-10.19,6.16-7.22,3.32-23.94,18.23-5.8,8.67,10.55.46,11.83.03,21.27-.17,3.59,1.89,7.11.7,11.18-.48,1.63-3.87,4.61-4.96,6.55-5.04,9,.71,12.52-.54,21.54-.44,3.16-2.48,3.49-2.92,5.71-1.17,5.99.64,15.43-.02,22.05-.41,4.04-2.46,7.7-2.88,11.52-1.27,11.71,1.07,25.37-.13,37.3-.88,2.7-8.7,1.73-11.11.83-9.65-3.63-11.05-17.27-21.36-18.99-5.2,7.55-14.09,14.35-14.46,24.1-.17,4.48,1.29,17.22,5.82,19.12,12.46,5.22,15.12-15.51,21.59-16.74,10.36-1.97,10.04,5.3,10.48,13.47.69.98,1.86.82,2.89.95,4.79.58,20.21.58,24.78-.27s14.89-7.55,15.93-12.01c-1.47-4.92-3.32-9.9-3.74-15.08-.86-10.47-1.17-33.09,0-43.25,3.18-27.45,2.56-57.02,3.55-84.58.09-2.63-1.68-5.37-1.62-8.45.05-2.7,3.29-11.74,5.51-12.79,4.51-2.13,12.86-2.18,17.6-.74,3.67,1.11,7.48,8.55,6.45,12.3-.35,1.28-2.23,5.88-2.9,7.67-2.5,6.6-5.47,13.83-7.93,20.86-2.98,8.48-3.98,18.63-5.97,27.62-3.51,15.91-4.59,23.02,0,38.84,1.72,5.93,4.55,15.25,5.42,21.45.8,5.68-1.12,15.07.28,19.87,1.58,5.4,13.05,5.2,17.51,4.47,2.7-.44,4.39-3.11,6.73-2.89,1.9.18,2.61,2.29,4.07,2.74,4.33,1.33,13.88-.46,13.71-6.07-.03-.95-3.24-4.87-4.16-5.87-3.83-4.21-11.9-10.07-15.04-14.22-1.16-1.53-4.67-8.09-4.77-9.7-.13-2.16,2.51-7.06,2.86-10.49.83-8.05-1.12-18.1.07-25.84.44-2.83,2.43-5.17,2.82-8.7,1.01-9.14-1.34-20.9.06-29.7.49-3.09,2.72-4.66,2.91-8.68.35-7.6-4.34-6.59-7.76-11.53-4.36-6.28-.34-7.44,1.5-12.9,1.13-3.35,1.35-7.77,3.53-11.34,1.76-2.08,14.84-1.04,18.47-1.21,9.39-.44,19.92-3.93,27.4,4.29,6.61,7.26-4.63,8.45-9.15,12.05-6.48,5.16-3.41,14.43-4.38,21.53-2.29,16.67-5.45,32.92-5.69,49.95-.07,5.2,1.32,10.27-.06,16.27-.84,3.64-5.78,8.38-5.76,12.53.02,5.97,8.02,16.42,11.55,21.14.35,5.5,1.07,11.74,0,17.21-.4,2.05-2.27,3.22-2.68,5.05-1.21,5.47,5.3,10.31,10.67,8.7.46-.14,6.75-4.2,6.94-4.57,1.26-2.47.03-7.08.51-10.05.54-3.37,2.37-9.6,3.26-14.02.82-4.06,5.08-8.08,5.37-10.07.53-3.59-4.08-5.24-2.86-12.38.44-2.58,2.62-3.98,2.84-5.87.49-4.12-.56-11.08.11-16.13,1.55-11.72,2.01-19.04,2.72-30.88.7-11.81,9.56-22.37,6.56-35.28-.9-3.9-5.21-11.2-6.11-15-5.29-22.45,17.17-16.75,31.61-17.21l1.44,1.44c-.04,3.35.46,10.81,3.41,12.9.54.38,11.31,3.26,12.78,3.53,5.43,1,19.25,2.28,21.88-3.6-1.35-4.31-3.35-9.2.91-12.5,4.76-3.69,7.25.56,12.44,1.01,9.29.81,18.23-3.74,26.01-3.92,9.12-.21,20.43,3.78,27.83,3.91,5.65.1,10.4-1.24,16.82.37,2.35.59,4,2.53,5.66,2.98,7.78,2.14,23.54,2.83,32.19,3.32,5.96.34,14.85-.98,20.12.03,2.69.51,5.19,4.38,7.26,5.22,2.49,1.01,5.66.34,8.19,2.46,3.85.38,6.1-6.59,15.27-4.8,2.73.53,6.21,5.26,7.84,5.58,1.88.38,3.62-2.82,6.46-2.72,5.44.19,12.8,6.18,20.27,6.51,17.32.76,29.64,3.62,45.25,12.07l-.05.03h0ZM978.27,1085.77c2.53-1.98,10.43-2.48,10.19-7.33-.68-2.61-10.07-4.39-12.82-7.4-1.84-2.01-3.05-6.87-4.9-9.49-2.33-3.29-10.36-8.97-10.96-12.08-1.55-8.11,2.28-12.32,2.9-19.14,1.54-16.87-2.08-37.34-.07-53.81.37-3,2.97-6.79,2.65-9.46-.09-.74-4.67-8.62-5.5-9.71-2.91-3.81-7.88-7.24-11.04-11.02-6.72,4.61-6,11.57-7.63,18.27-.32,1.3-2.04,2.37-2.41,4.31-2.39,12.6.04,41.09-.08,55.66-.11,12.47-1.27,25.51-3.09,38.1-.58,4.02-2.93,6.8-3.46,10.61,2.03,4.46,6.39,4.69,9.53,6.86,4.29,2.96,12.04,16.08,14.03,16.68,2.31.7,5.17-.25,7.49.19,2.63.5,3.05,3.69,6.52,2.73,4.98-1.37,4.38-10.64,8.64-13.97h0ZM1097.96,964.55l.02,108c-4.2,13.73-9.45.59-13.43-3.88s-9.19-5.96-10.52-13.47c1.76-20.44-2.54-45.34-.08-65.23.51-4.14,3.85-8.12,4.62-12.28l-24.31-28.48c-1.95-.48-5.7,5.92-6,7.47-.44,2.23.81,4.2.81,6.4-.03,20.89-.27,41.72-.64,62.58-.22,12-1.15,17.46-2.27,28.64-.42,4.13-.56,23.38.9,25.95,3.81,6.69,10.87,3.38,16.79,4.33,4.57.73,12.79,4.2,17.6,5.44,12.08,3.1,11.37-.59,20.7-6.29l10.23,5.59c.91-5.12-3.17-6.92-2.97-12.01.17-4.28,3.54-5.68,3.07-10.56-.35-3.67-3.63-3.63-2.95-8.54s10.01-18.01,12.2-24.33,1.78-14.31,3.33-19.7c.45-1.58,5.19-8.02,5.23-9.78s-2.97-4.7-2.36-7.46c.43-1.97,4.67-7.13,4.57-9.83-.05-1.23-1.51-2.47-1.79-3.93-.83-4.31-1.17-11.11-2.45-14.82-1.48-4.27-10.97-7.64-15.21-6.66-.81.19-.79,1.62-1.33,1.89-3.91,1.96-9.42.57-13.74.96h-.02,0ZM997.86,953.16c-3.38,1-5.96,8.76-6.3,12-1.47,13.69,1.17,29.37-.13,43.06-.44,4.65-2.51,9.42-2.91,14.37-.64,8.14-1.14,29.94.09,37.41.92,5.58,5.5,7.64,8.77,2.17,17.51-29.26,8.07-63.48,10.32-96.12-2.24-3.69-4.03-14.61-9.84-12.88h0ZM1168.65,973.54c-2.13-1.86-10.93-7.31-13.16-5.69l-.87,123.86c.03,1.09.73,1.72,1.34,2.5,1.34,1.71,11.98,5.25,14.55,5.6,3.19.44,7.69-.57,10.28.07.88.22,1.45,2.48,2.53,3.42,3.58,3.15,7.42,2.55,11.94,2.22,4.05-1.38,5.44-19.36,4.27-23.2-.19-.63-5.98-5.67-6.56-5.92-2.16-.94-4.43-.25-7.06-1.58-1.12-.57-6.8-6.22-7.12-7.28-.53-12.4-.06-24.85-.12-37.22-.03-6.04-.05-12.07-.04-18.29,0-3.12-2.36-16.26,1.53-17.58,6.34-2.15,9.79,3.52,9.88,9.09.04,2.58-1.63,4.35-1.69,6.58-.04,1.39.87,3.08.84,4.79-.1,7.25-2.73,16.44,3.32,21.62,2.76-2.79,7.25-6.46,6.05-10.78-.45-1.62-2.38-2.71-2.68-5.13-.42-3.35,1.46-7.29.98-11.46-.42-3.67-2.76-8.37-2.84-12.6-.13-7.06,1.71-12.9-.3-20.73-1.05-4.08-3.48-10.17-8.4-8.39,2.04,4.82,4.01,8.13,2.74,13.78-9.19,7.17-14.02-2.97-19.41-7.69h0ZM1265.94,1019.26c-1.69-4.53-3.41-9.07-5.12-13.6-1.37-3.6-1.66-5.22-3.39-9.09-3.62-8.13-7.16-18.72-15.33-6.43l4.69,10.42c-.6,4.06-3.88,9.46-3.91,13.42-.03,3.05,2.17,6.35,2,9.61-.26,4.84-.98,7.37-.98,13.39,0,12.35-2.81,41.22.86,50.97.85,2.26,2.57,2.62,2.99,5.65.27,1.95.2,6.6-.25,8.5s-2.75,3.53-2.54,4.83c.06.39,3.24,6.28,3.68,6.9,6.74,9.42,14.45,9,24.47,10.08,5.35.58,8.97,3.55,13.89-.54,3.62-3.01,3.57-9.96,2.97-14.4s-5.17-4.92-5.83-10.49c-2.07-17.45,1.68-38.87.06-56.69-.48-5.23-3.34-9.13-3.87-14.37-.86-8.49.53-17.37.9-25.84-.83-5.46-9.82-9.73-13.88-12.85l-4.24,4.98c2.79,2.93,5.2,5.42,5.72,9.7.17,1.43.95,18.91-2.89,15.86h0ZM714.15,988.65l-1.47,10.52c-4.05,2.78-9.77-1.67-13.57,1.8-.41.38-3.83,9.36-4.04,10.35-1.09,5.2.69,12.01-.25,17.02-.44,2.32-2.45,3.35-2.86,6.73-.93,7.61,1.16,17.47-.03,24.92-.44,2.74-2.44,4.46-2.84,7.71-.77,6.16.96,14.11-.03,20.13-.44,2.71-2.64,3.89-2.91,6.76-.53,5.71,4.2,6.89,5.4,11,.71,2.44.1,4.78.65,7.03.77,3.21,5.55,10.73,9.05,11.05,1.76.16,13.29-5.42,14.23-7.49,2.25-4.95-.88-6.36-1.92-9.56-4.32-13.25-4.49-17.89-.21-30.96,5.23-15.99.66-28.74,2.61-44.42.42-3.39,2.5-5.2,2.92-8.59.64-5.14.85-27.06-.02-31.7-.14-.76-.19-1.49-.89-1.98l-3.82-.32h0ZM622.88,1065.81c-1.03,4.51.75,12.32,0,17.28l2.42,1.51c7.47-1.16,5.79-8.28,7.49-13.68,1.06-3.36,4.6-8.05,5.23-11.09,1.01-4.9-.73-11.24.45-15.87.91-3.57,5.4-6.87,5.62-11.73.34-7.44-5.09-7.64-5.83-11.56-.33-1.73-.32-6.86,0-8.6.37-2.02,3.81-3.78,1.92-4.83-7.08-2.26-18.63,5.33-17.11,13.21.75,3.87,5.05,6.25,5.56,8.9.73,3.83.47,17.77.07,22.1-.49,5.19-5,10.83-5.8,14.35h-.02,0ZM1012.2,1084.67c-6,2,2.85,13.26,6.13,14.77,2.94,1.36,8.57-4.27,7.21-7.21-1.65-3.58-8.86-9.06-13.34-7.56ZM661.01,1090.48c-2.02.44-3.23,1.71-4.39,3.32-1.48,2.05-6.6,14.78-6.9,17.08-.93,6.99,1.49,12.51,9.17,13.06,7.17.51,4.83-3.66,8.6-6.8,4.32-3.6,19.81-4.7,14.95-12.98-2.95-5.04-15.1-15.05-21.42-13.67h0ZM599.36,1108.76c-10.96,6.79-3.96,20.28-6.96,30.85,7.14,7.82,18.91-3.42,24.69-8.53-6.79-6.79-8.43-17.86-17.72-22.32h-.01Z"/>
  <path class="st3" d="M902.17,1187.7c.45,2.78,2.45,9.5,3.28,13.03.46,1.94,2.1,3.45,2.43,5.27,1.32,7.29-4.18,7.39-7.65,11.43-5.34,6.22-11,18.42-13,26.35-1.2,4.74.68,12.55-6.61,13.55-10.83,1.49-12.77-.1-17.59-8.42-.46-.8.27-1.6-1.64-1.21-2.62,3.61-4.87,5.61-9.1,7.22-3.34,1.26-5.71,2.16-8.96,3.52-12.36,5.16-9.66,2.33-21.26,1.7-17.15-.93-38.25,4.7-51.31-8.26l.36-1.27c3.48-6.01,10.56-9.09,14.36-14.51,2.65-3.78,6.1-11.99,5.15-16.5-.74-3.5-5.06-10.86-7.95-13.17-8.7-6.98-16.84-4.29-27.2-4.96-3.98-8.55-15.06-22.25-24.68-23.78-3.17-.5-14.99-.52-17.98.15-4.78,1.07-8.64,8.71-15.37,4.65-2.92-1.76-2.94-5.06-9.74-6.81-16.15-4.17-19.62,5.99-29.8,13.47-8.85,6.5-26.22,1.29-37.57,12.82-7.31,7.43-9.2,21.75-1.51,29.42,5.18,5.15,12.4,2.93,17.42,6.29,8.52,5.71-9.94,8.97-12.15,9.81-7.44,2.81-13.6,12.25-18.02,18.43-8.97-11.94-12.79-.6-17.43-.18-1.99.18-11.94-7.19-16.65-4.6-.1-13.36,2.86-28.31-3.96-40.67-1.76-3.18-7.21-6.39-8.37-10.51.14-1.72,7.68-8.44,9.52-9.71,3.1-2.14,21.77-11.63,24.56-11.78s4.65,2.43,6.55,2.52c2.64.12,7.21-3.03,9.84-3.54,3.36-.66,9.89.62,12.2-2.19,10.68-12.96,27.26-15.76,43.35-19.03,5.53-1.12,18.05-4.17,22.93-4.03,6.84.19,7.07,4.39,10.06,9.22,9.16,2.92,7.95-9.25,15.32-11.59,3.47-1.1,7.33.09,10.88-.64,10.22-2.11,21.61-6.5,31.94-8.37,3.19-.58,18.82-.6,21.98-.01s6.87,4.84,9.84,5.52c4.77,1.08,10.92-.79,15.68.63,3.16.95,7.22,5.66,11.11,5.97,5.46.44,9.1-2.82,13.4-3.45,6.11-.9,14.27.96,20.03-.12,2.4-.45,3.57-2.81,6.79-2.92,3.66-.12,4.34,2.16,6.88,2.76,9.01,2.14,14.4-7,20.74-5.55.79.18.73,1.77,1.82,2.21,7.57,3.08,10.99-3.55,15.49-2.11.52.16,1.59,1,1.59,1.32,0,9.11-1.32,24.43,0,32.63h0Z"/>
  <path class="st0" d="M974.64,1150.75c2.35.63,12.92,10.68,14.69,13.1,3,4.11,5.03,8.99,6.95,13.73,2.33,1.61,9.39-8.24,10.28-10.26,1.24-2.81.84-5.33,1.64-7.96s3.38-4.96,2.43-8.61l17.26.5,11.99,12.93c.51,1.8-3,6.61-4.27,8.19-4.95,6.13-19.15,19.69-26,22.95-1.48.7-3.25.38-4.76,1-1.61.85.08,2.42.5,2.42h39.35c.73,0,7.6,7.13,7.97,8.35.72,2.37.44,9.14-.54,11.56-1.03,2.57-5.5,5.15-7.99,6.41-8.33,4.23-19.4,7.06-28.45,9.94-3.62,1.15-7.78-.14-10.82,4.54,5.47.36,12.43.28,14.15,6.95,2.61,10.1-5.14,12.65-10.32,18.96-2.55,3.11-10.88,12.88-12.35,15.48-1.08,1.91-2.92,6.7-.61,8.03h36.47c7.12,7.17,16.83,13.93,5.35,22.61-4.04,3.06-11.71-1.03-16.88-1.48-2.09-.18-10.9-.39-12.04.4l-.91,29.8c-2.59,3.93-4.3,8.39-6.89,12.31-2.77,4.2-17.77,20.68-21.53,22.62-5.05,2.6-12.16,1.61-16.33-2.14-13.36-12.02-24.55-27.21-38.31-38.95-2.7-3.08-2.33-11.05-.89-14.44.34-.8,7.93-8.15,9.17-9.07,4.19-3.09,24.1-14.43,28.44-15.71,1.88-.55,3.8.14,6-.71,1.4-.54,7.97-5.28,8.73-6.63,1.67-2.97.48-5.5,1.13-8.47,1.02-4.59,4.94-8.31,2.65-13.17-2.85,1.67-5.76,1.57-8.59,2.44-1.03.32-2.8,2.36-3.4,2.36h-17.76v-17.76c8.91-9.07,20.19-14.97,30.21-22.58,2.08-1.58,3.74-4.06,5.78-5.74,2.69-2.2,8.38-3.8,9.12-7.68h-13.92c-1.97,0-26.87,10.2-31.19,12-3.7,1.55-8.01,4.35-11.48,5.8-3.7,1.55-9.76.11-10.65,6.63-2.35,17.12,1.62,39.78.08,57.67-1.33,15.45-11.44,17.85-25.27,16.78-3.78-5.05-6.79-6.08-7.43-12.94-1.3-13.9,2.24-47.31,7.04-60.22,4.28-11.53,15.36-27.92,29.48-25.72.53-4.24-5.31-4.8-7.56-8.27-7.12-10.96-8.91-33.06-7.83-45.98,1.08-12.93,9.09-10.64,18.17-5.62,9.04,5,22.39,19.81,24.84,29.86,1.23,5.01.98,23.49,7.85,9.38l-5.29-15.78c1.92-3.66-2.34-11.6-2.34-13v-16.8c4.08.7,11.3-.96,14.88,0h0ZM986.63,1341.27c.76-2.49,0-13.58,0-17.28s-11.01-12.49-14.7-13.76c-3.92,4.31-29.37,11.9-29.45,16.63.69,1,2.61.36,3.88.93,10.52,4.77,21.69,8.66,32.62,12.49,1.57.55,6.47,4.89,7.65.98h0Z"/>
  <path class="st0" d="M1232.33,1272.64c-1.31-5.01,2.23-8.71,2.8-13.04,1.43-10.86-2.87-5.89-8.3-4.47-15.54,4.08-26.23,11.32-36.16,24.3-3.48,4.54-12.36,21.07-17.55,21.82-.88.13-9.18-.95-9.88-1.3-.76-.38-11.4-10.52-12.33-11.63-2.36-2.83-4.57-7.3-1.79-10.62.85-1.01,3.24-1.4,4.26-2.46,11.25-11.74,32.36-37.56,36.47-53.26,1.27-4.85.21-19.91,8.94-17.09,1.19.38,2.17,1.77,3.57,2.23,4.83,1.59,10.33,2.52,14.97,5.19.65.37,5.69,4.35,5.89,4.67.81,1.33.82,16.3.43,18.66-.48,2.98-5.77,7.23-.43,8.2,1.38.25,11.27.2,11.84-.15,4.88-6.83,2.98-14.12,4.22-21.21,1.7-9.69,4.88-19.46,7.98-28.5,1.44-4.22.8-7.57,4.7-11.62,5.02-5.21,7.9-4.72,13.52-.94l3.53,21.43c6.81,6.39,12.83,15.25,12.32,25.12-.28,5.36-6.21,11.08-8.86,16.18-3.25,6.25-10.76,21.74-12.24,28.07-3.15,13.54,2.49,9.14,10.41,14.41,19.55,13.02-1.62,24.79-8.98,35.01-.75,1.05-5.35,9.34-5.26,9.89.7,4.43,19.17,1.98,23.46,2.5,7.6.93,18.07,8.84,10.52,16.33-5.93,5.89-23.23,9.24-31.4,10.83-8.87,1.73-20.4,4.48-29.03,5.52-3.97.48-27.67.63-30.54-.22-5.59-1.66-8.38-10.46-5.66-15.83,7.25-14.32,22.58-23.71,32.71-35.46-3.1-6.7-4.13-12.84-8.04-19.55-2.11-3.63-12.4-15.77-11.87-18.46,2.04-10.38,18.58-5.69,25.77-4.56h.01Z"/>
  <path class="st3" d="M814.4,673.24c-1.98-1.95-2.31-3.82-3.86-5.27-5.48-5.14-11.83-3.14-18.15-3.92-5.05-.62-9.64-3.75-15.47-3.81-10.32-.11-17.23,11.82-25.48,9.24-12.25-3.82-18.14-1.36-30.16-2.46-8.49-.78-18.63-4.4-27.81-3.8-2.48.16-9.27,5.07-12.56,5.68-2.45.46-12.02,1.28-14.36,1.04-5.29-.54-10.91-3.88-18.22-3.67-5.05.14-7.99,2.4-12.36,3.56l-17.87-17.68c-7.08-5.76-2.73-16.79,5.44-17.55,2.9-.27,8.44,4.05,15.95,2.45,12.49-2.65,25.3-3.96,38.59-2.66,7.26.71,25.29,7.02,30.79.07,3.71-4.69-4.08-11.57-1.51-18.31,8.17-1.81,10.7,3.89,15.84,8.62l8.65-8.3c4.71,2.45,8.95,6.57,14.46,7.33,4.51.62,7.14-1.97,10.4-1.83,2.67.11,5.22,2.36,7.82,2.77,2.08.33,7.53.42,9.52.04,1.48-.28,15.3-10.2,18.71-12,9.1-4.8,18.53-7.25,27.37-12.02,6.04,2.63,8.17,10.21,9.87,16.09.62,2.15,2.72,10.31,3.01,12.34.82,5.58-1.5,25.64,1.46,28.3s9.22-6.47,11.52-7.8c7.18-4.14,10.88,3.87,16.42,4.8,5.99,1,13.74-.77,19.95.2,5.73,7,8.77,14.1.65,20.51-5.2,4.1-13.04,9.09-19.7,9.17-8.3.11-17.92-4.84-26.01-5.73-9.15-1.01-15.35,2.02-22.89-5.42v.02h-.01Z"/>
  <path class="st3" d="M1052.86,1168.03c2.95-.07,3.31,3.26,6.25,3.81,7.76,1.46,19.56-1.03,27.83,0,3.43.42,5.42,2.74,8.63,2.96,5.25.36,6.63-4.38,14.35-2.89,4.45.86,13.21,7.71,18.32,8.55,8.19,1.35,19.37-1.02,27.81.02,3.39.42,5.21,2.5,8.59,2.92,8.54,1.06,20.81-1.52,28.79,0,2.02.38,5.17,3.73,7.51,4.96s5.56.7,7.36,3.17c-3.43,3.54-8.93-.27-12.94-.28-5.03-.01-13.33,3.41-15.89,7.91-1.68,2.96-.44,5.53-1.13,8.47-3.77,15.99-14.85,35.79-26.75,47.15-.94.89-6.82,5.99-7.3,6.14-5.06,1.53-10.76-3.07-16.11-3.65-7.83-.85-12.56,2.62-18.08,2.54-4.79-.06-11.32-3.4-15.55-3.55-4.87-.17-14.01,3.73-20.23,3.79-4.56.05-10.24-2.56-13.4-2.78-2.55-.18-5.68,2.52-8.68,2.83-2.76.28-4.55-.74-6.61-.72-3.26.03-12.06,2.55-13-2.6-.31-1.68,1.97-11.05,2.87-12.52,2.37-3.88,6.6-2.56,9.7-3.74,8.37-3.2,20.57-10.53,21.95-20.28,1.55-10.92-.88-25.66-10.95-32.07-4.11-2.62-8.9-.33-9.69-5.72-.66-4.46,7.79-8.58,6.33-14.42h.02Z"/>
  <path class="st0" d="M727.5,1322.55l-2.89,1.43c-13.74,13.57-24.87,29.3-39.36,42.22-5.44.68-11.41,2.42-13.9-3.4-2.21-5.16,10.14-19.31,13.9-23.48,7.2-7.99,15.89-16.74,23.48-24.5,1.3-1.32,3.11-1.96,4.38-3.32-1.38-4.47-5.63-.26-10.31-2.16-9.6-3.91-2.29-16.95,3.12-21.34l-.97-1.92h-17.28c-.23,0-3.11-1.89-3.43-2.33-1.38-1.91-1.24-17.78-.9-21.19.36-3.59,2.05-8.63,2.76-12.59,1.33-7.32,1.67-19.06,9.18-23.44,6.16-3.59,5.5,2.48,9.79,4.72,5.86,3.06,12.22-5.92,16.68-9.2,1.07-4.13-10.94-22.57-8.67-29.06h17.76c2.33,0,17.11,22.68,20.63,25.47,2.72,1.5,4.36-1.13,7.15-1.53,2.61-.37,13.89-.34,15.42,1,6.07,5.34-3.06,12.19-7.19,15.86-3.26,2.89-12.98,8.2-12.34,12.25.61,3.81,5.9,5.03,3.48,13.44-1.41,4.92-10.23,7.54-11.17,10.92-1.15,4.16,4.31,2.33,6.64,4.58,4.49,4.33.43,12.71-2.53,16.79-6.6,9.1-13.54,7.53-10.75,22.4.57,3.06,4.53,15.41,6.1,17.9.77,1.22,4.14,4.89,5.52,4.75,3.07-2.82,5.99-2.25,9.33-3.18,12.37-3.43,25.02-8.71,37.12-11.83.86-.22,9.62-1.24,10.31-1.18,4.51.39,3.83,9.68,3.44,13.02-.71,6.08-14.66,8.44-19,11.71-12.71,4.1-26.5,6.81-39.86,10.05-2.06.5-4.03,2.59-5.98,2.59-1.57,0-10.6-4.81-12.04-6.13-.89-.81-7.63-10.87-7.63-11.56v-17.76h.01ZM714.76,1244.07c-1.41.29-6.81,2.95-7.26,4.26-.74,2.15-.7,10.3,1.73,11.38,4.27,1.91,15.43-12.18,19.21-14.41.03-2.13-11.65-1.64-13.68-1.22h0Z"/>
  <path class="st0" d="M394.46,1253.45h-2.85c.15,5.85-4.93,8.27-7.7,12-2.06,2.77-3.17,6.04-5.72,8.68-10.73,11.1-28.68,7.13-34.61-6.78,0-1.53,2-2.51,2.64-4.08,6.99-16.94,15.68-40.62,18.43-58.34.94-6.07-1.14-15.72,8.26-15.81,13.65-.12,18.53,9.78,27.29,16.85.97.78,1.28,1.82,2.89,1.41-.67-4.49,2.55-8.75,2.7-12.94.31-8.9-3.41-19.32-4.6-27.92-.45-3.25.92-6.46,4.32-7.09,6.92-1.29,21.1-.69,22.48,8.19,1.11,7.13-7.73,18.25.09,23.89,5.52,3.98,10.23,1.76,8.67,11.59-.09.54-5.92,6.45-7.19,8.2-8.7,12.02-17.59,29.15-19.67,43.67-1.42,9.92,1.09,8.02,5.12,13.9,3.15,4.59,2.08,9.18-.02,14.25-1.07,2.58-4.78,6.2-5.18,8.26-1.45,7.54.81,19.51-.03,27.8-.79,7.79-4.27,12.86-2.81,22.03.44,2.74,2.44,4.46,2.84,7.71.33,2.67.5,17.33-1.62,17.82-11.06,2.5-12.8-5.16-20.02-10.58-5.05-3.79-19.03-9.6-24.99-10.52-2.94-.45-9.87,1.2-10.82-1.66-5.13-15.44,6.26-21.73,14.21-31.54,6.31-7.79,12.03-16.12,18.29-23.94,1.29-1.61,9.57-9.73,9.57-10.58v-24.47h.03,0ZM394.46,1312.96c-2.87-3.35-11.95,19.49-14.37,19.67,4.63,4.16,9.22,4.97,15.34,4.32l-.97-23.99Z"/>
  <path class="st0" d="M484.68,1211.7c1.36,4.8,11.82-.03,14.95-.4,9.22-1.09,23.61-2.4,32.29.19,8.95,2.67,20.97,9.62,24.48,18.71,4.07,10.54,2.86,39.37,2.16,51.56-.2,3.58-2.07,8.15-2.01,11.56.07,3.83,3.19,8.14,3.06,13.4-.04,1.68-2.52,10.52-3.24,11.73-.42.69-4.27,5.96-5.05,6.93-16.7,20.8-57.81,7.63-81.47,11.62-1.79.3-6.02,2.73-7.69,3.82-3.06,2-6.65,6.9-8.57,7.74-2.58,1.13-16.38,1.83-16.89-.59,5.77-8.54,13.87-16.04,20.13-24,7.1-9.02,13.19-19.07,19.74-28.25,7.35-10.31,15.12-20.29,21.82-31.05,3.66-3.28,11.68-.74,10.15,4.41-.33,1.11-1.86,1.77-2.22,2.65-5.9,14.64-12.4,25.1-20.17,38.38-1.29,2.2-9.51,15.99-8.19,17.24,2.03,0,4.1.16,6.14-.1,14.71-1.82,35-5.71,44.7-17.68,6.72-8.3,7.17-14.59,7.35-25.09.24-14.23-1.52-38.1-9-49.98-4.91-7.79-11.63-10.68-20.85-8.87-.77.15-12.03,4.8-13.63,5.57-8.03,3.85-19.25,15.87-25.26,22.73-.87,1-.94,2.83-1.94,3.82-2.08,2.07-12.55,1.89-15.58,1.2-.91-.21-9.56-7.79-9.84-8.37-.87-1.79-.77-6.91-.24-8.9,3.37-12.81,10.93-26.4,14.91-38.83,1.83-5.72,2.94-18.26,5.53-22.29.47-.73,2.11-2.59,2.83-2.65,4.25,3.54,10.18,1.63,14.21,2.8,1.63.47,7.39,8.33,7.39,8.92,0,4.76-.95,18.71,0,22.07h0Z"/>
  <path class="st0" d="M1514.21,1145.29c.59.79.99,2.7.76,3.66l-11.03,24.38c-.04,3.22,12.11,10.82,15.06,12.76,9.01,5.91,20.66,12.62,30.15,17.83,12.43,6.82,41.82,23.28,55.01,21.61,3.2-.4,7.41-2.97,10.59-2.76,4.66.32,17.34,11.4,17.8,15.89.38,3.67-7.3,13.72-10.28,16.5-6.97,1.09-13.88,1.35-20.94,1.21-16.39-.32-26.57-7.59-40.09-16.54-20.57-13.61-39.04-29.39-57.79-44.91-3.6-2.98-7.81-5.55-11.39-8.62-.98.2-10.5,13.89-11.94,15.95-20.78,29.82-40.02,61.93-64.44,89.12-7.73,8.61-7.81,9.49-20.3,12.33-3.3.75-6.2,1.09-9.34-.49,1.18-7.22-3.07-18.37.82-24.34,3.48-5.35,15.76-14.52,21.15-20.12,16.97-17.66,34.45-36.54,49.86-55.71,13.55-16.85,24.69-35.59,37.86-52.36,3-3.81,4.56-13.31,9.21-12.01.93.26,8.73,5.88,9.28,6.62h-.01Z"/>
  <path class="st3" d="M1313.59,631.87c.29.13.46,1.36,1.53,1.84,11.43,5.2,26,3.95,38.66,3.6,6.15-.17,8.26-.23,14.36-.03,5.3.17,20.93-1.85,23.02,2.89,1.03,2.34.96,21.7-.38,23.57-2.63,3.65-9.39,2.59-12.81,3.51-1.39.37-2.47,1.99-4.26,2.45-6.35,1.62-14.06,3.97-20.49,2.66-9.49-1.94-12.6-7.15-24.36-5.28-2.53.4-4.31,2.36-6.83,2.76-8.94,1.42-24.73-1.23-30.66-8.55-2.17,3.53-13.04,7.63-12.99,1.4.02-2.19,10.74-11.03,4.82-16.31-2.89.19-5.57-2.66-7.42-3.13-3.92-1.01-9.11.39-13.16-.28-2.58-.43-4.11-2.72-5.87-2.86s-5.25,2.55-8.57,2.91c-8.98.98-33.36,1.09-42.15-.08-2.98-.4-5.83-2.32-8.8-2.71-8.98-1.19-13.55,2.63-18.33-8.25-.06-1.22,3.99-6.66,4.88-8.25.95-1.7.73-3.83,2.03-5.65,1.2-1.68,6.37-4.38,8.47-4.97,9.52-2.65,24.81-.75,34.61-.89,8.52-.12,16.17-2.59,25.06.15l21.09-5.87c6.03.26,7.76,8.15,10.65,12.46,1.16,1.73,7.21,10.69,8.08,11.12,4.21,2.08,7.2-1.77,11.04-1.53,1.23.08,7.19,2.6,8.8,3.32h-.02Z"/>
  <path class="st0" d="M1528.56,1286.7c-10.24,10.89-22.91,22.54-33.76,32.94-3.11,2.98-6.92,6.36-9.09,10.09,1.14,5.41,22.26-3.39,25.29-5.4,4.22-2.81,7.93-8.6,9.78-13.26,1.31-3.31.1-10.33,6.65-10.49,4.85-.12,12.84,10.29,14.38,14.34,2.42,6.4,4.28,15.64,3.32,22.42-.72,5.08-3.57,14.02-5.12,18.87s-1.82,9.16-6.78,12.41c-12.23,8.02-29.13-5.25-23.52-19.2-7.1-1.25-12.45,1.44-18.98,2.61-7.87,1.41-15.78,2.02-23.62,3.25-7.94,1.25-12.53,6.41-18.82-2.5-3.48-4.93-3.64-11.46-1.62-16.99,1.11-3.04,11.48-14.42,11.22-15.63-.49-2.3-8.77,0-11.79-.7-6.79-1.56-5.88-7.67-6.64-12.54-.21-1.32-1.74-2.64-1.7-4.08.04-2.01,5.13-7.37,7.4-7.92,3.4-.83,7.81-2.31,10.55-2.88,2.43-.51,5.08.23,7.28-.4,3.34-.96,6.19-8.36,9.03-9.21,3.36-1,6.2,1.13,8.93.38,3.5-.96,12.37-7.02,17.25-8.75s11.28-2.23,15.67-3.53c1.37-.41,1.96-2.27,4.04-2.68,7.31-1.44,19.33,2.34,16.35,11.56-.4,1.23-4.48,6.03-5.66,7.29h-.04Z"/>
  <path class="st0" d="M632.96,1222.73c-4.44-.96-5.39-6.63-2.41-10.09,8.06-9.36,22.17-2.32,33.53-8.69,8.05-4.52,13.61-22.18,24.44-10.86,8.27,8.65-2.97,11.85-8.09,18.82-3.92,5.34-11.33,23-12.38,29.6-1.68,10.54,1.45,26.49,2.9,37.29.88,6.53,4.83,13.31,2.67,21.07-5.85,3.47-13.47,8.68-17.47,14.3-2.65,3.71-5.44,13.99-6.14,18.71s.64,11.23-.45,14.91c-.67,2.26-5.98,10.18-7.92,12.23-7.02,7.46-14.28,10.13-22.11,1.87-1.53-1.61-5.22-7.07-5.21-9.11,0-1.87,2.35-5.01,2.72-7.76,2.53-18.69,3.45-37.83,5.93-56.46.43-3.22,2.76-6.51,2.85-9.71.16-5.71-7.65-9.95.59-15.64,4.8-3.32,10.73-3.42,15.94-.91,2.83,1.36,4.05,5.27,7.41,5.54.57-.68-.41-14.75.06-17.69.4-2.53,2.36-4.31,2.76-6.83.71-4.44-.61-10.04,0-14.39.35-2.49,2.19-3.71,1.97-6.19-6.22-.91-15.86,1.23-21.59,0h0Z"/>
  <path class="st3" d="M1409.86,1232.37c0,6.31-6.53,9.5-10.1,13.37-9.98,10.81-12.8,16.68-28.98,19-10.1,1.44-14.94-1.87-23.82-2.67-13.69-1.24-29.43.04-43.09.06-7.53.01-15.08-.09-22.6-.04-.18-1.72-.05-3.1.54-4.74,4.78-13.33,16.67-17.95,13.8-35.99-.41-2.59-5.38-8.62-1.24-9.99,7.58-2.5,15.29,7.17,21.05,7.53,2.18.14,4.06-1.7,6.61-1.95,12.57-1.22,16.84,3.27,27.1,5.6,2.69.61,5.52-.16,8.24.4,6.16,1.26,14.4,7.45,21.13,5.35,1.23-.38,1.8-1.8,2.62-2.2,5.27-2.53,8.55,7.54,13.07,7.95,2.79.25,10.62-5.52,15.66-1.68h0Z"/>
  <path class="st3" d="M917.73,627.46c2.24,1.34,47.31,1.06,52.07.19,2.29-.42,3.35-2.45,6.73-2.87,5.07-.62,32.13-.71,36.06.46,2.24.67,3.81,3.17,7.13,3.24s17.59-.28,20-.81c.79-.18.73-1.76,1.82-2.21,7.16-2.93,19.55,4.46,27.09,4.08,4.66-.23,9.82-3.07,13.96-4.28,2.28-.67,10.57-3.4,11.97-3.31,5.58.38,11.07,11.34,14.96,13.87,4.26,2.77,15.21,4.36,10.57,12.55-3.4,6-15.12,2.96-20.58,1.44-2.19.76-1.61,10.1-9.66,10.58-6.4.39-11.92-2.76-15.11-8.04-.93-1.54-1.03-3.65-2.24-5.43-4.24-6.24-11.54-2.87-17.79-4.28s-15-7.5-20.52-8.27-16.35.42-21.36,2.72c-5.93,2.72-4.42,1.71-10.31,3.13-3.07.74-5.21,2.45-8.69,2.82-11.08,1.18-22.5-7.55-35.56-5.8-2.82.38-4.64,2.39-7.72,2.84-6.19.9-13.95-.83-20.01.14-3.71.59-10.44,4.62-13.72,5.47-1.9.49-7.44.59-9.36.21-1.38-.27-9.4-4.9-10.13-6.17-2.87-5.02,5.97-15.77,11.25-17.68,2.26,2.49,6.33,2.25,7.99,3.28.66.41.74,1.88,1.16,2.13h0Z"/>
  <path class="st3" d="M1326.15,1013.68c4.01-.84,6.05,4.63,8.6,5.4,4.21,1.27,13.74-3.52,14.74,5.43.66,5.93-4.03,7.11-2.99,14.49.45,3.19,2.56,3.43,2.98,6.6,1.86,13.87-1.8,32.07-.08,46.15.41,3.38,2.43,4.42,2.86,6.73,1.08,5.7-.67,14.04.02,20.09-2.35,4.24-16.78,19.8-21.6,14.92-2.93-2.97-.86-31.4-1.38-37.97-.37-4.69-2.48-8.53-2.94-12.41-.88-7.35,1.1-16.76-.03-23.96-.75-4.77-5.16-10.01-5.45-16.63-.29-6.44,2.65-13.67-4.05-19l5.31-7.07c.72-.77,3.12-2.59,4.01-2.78h0Z"/>
  <path class="st3" d="M294.4,1148.08c9.8-2.64,1.47,14.28,7.45,14.23,5.1-.04,7.01-18.57,13.5-13.56.79.61,4,6.21,4.21,7.32,4.05,21.8-6.4,36.11-19.69,51.24-3.34,3.8-8.13,9.59-12.92,4.4-6.56-7.11,3.2-12.55,5.33-18.7.74-2.12,1.23-6.33.94-8.68-2.01-3.21-8.1,5.95-8.9,7.44-1.12,2.1-2.12,8.23-4.07,9.37-2.26,1.31-13.41,1.53-14.27-1.09-.47-2.44.21-5.04-.21-7.47-1.03-6-8.68-13.12-8.66-18.32,0-2.04,1.68-3.15,1.98-4.84.57-3.22-.57-6.7.47-10.08,2.83-9.2,15.27-4.46,22.09-5.75,2.79-.53,9.88-4.74,12.75-5.51Z"/>
  <path class="st3" d="M1375.99,1045.32c4.36-1.04,11.84,6.11,14.26,9.41,9.15,12.44,5.85,20.49,8.2,34.03.45,2.57,2.63,5.36,2.69,8.83.13,6.84-1.55,17.14-.89,23.9.37,3.83,3.28,6.27,3.81,9.64.71,4.55.63,19.2-.03,23.85-.87,6.15-11.34,17.31-18.13,12.54-4.87-3.42-1.18-8.05-1.18-12.46-.01-7.04-3.1-12.9-3.68-19.15-1.2-12.95,3.09-23.38-1.71-35.72-.64-1.65-2.41-2.87-2.85-4.83-1.89-8.32,1.05-21.69-.15-30.56-.43-3.2-4.36-9.3-4.46-11.46-.08-1.74,2.17-7.56,4.11-8.03h.01Z"/>
  <path class="st0" d="M1473.23,1273.6c-3.69-2.48,6.45-11.24,8.07-13.53,7.5-10.62-8.53-12.54-9.04-21.6-.2-3.49,6.91-8.26,9.89-9.23,2.63-.86,4.76-.35,6.73-.95,1.31-.4,1.98-2.09,3.27-2.49,2.96-.92,7.78.2,11.24-.28,6.14-.84,8.68-4.86,16.61-2.05.76.27,5.8,3.41,6.52,4.04,5.21,4.58,7.39,19.59,2.79,24.89-4.93,5.67-14.77,2.23-19.58,4.42-2.24,1.02-8.22,8.73-11.08,11-1.03.82-8.1,5.78-8.61,5.78h-16.81Z"/>
  <path class="st0" d="M466.04,1301.03c-6.59,7.63-9.88,14.33-22.01,11.79l-1.44-1.44c-1.39-4.16,2.48-11.56,4.49-15.4,6.69-12.83,19.1-23.97,27.96-35.39,5.65-3.2,14.38-16.89,19.26-19.11,3.27-1.49,8.37-1.4,7.23,3.34-1.01,4.2-6.03,12.45-8.38,16.61-7.87,13.92-16.72,27.58-27.1,39.6h0Z"/>
  <path class="st3" d="M1423.45,721.88c5.51-3.13,4.48,10.32,4.9,12.59,1.09,5.85,4.16,16.99,6.19,22.6,1.35,3.74,5.15,6.48,5.84,8.55,5.38,16.07,8.96,31.04,8.82,47.73-.04,4.65.8,12.26.04,16.36s-11.55,3.1-12.32.8c.3-5.12-2.37-10.63-2.96-15.27-.94-7.31-2.12-14.82-2.98-21.97-1.08-8.93,2.23-24.31-1.7-31.89-.95-1.83-2.68-2.76-3.48-4.2-3.44-6.22.22-14.21-.67-21.41-.44-3.58-3.75-8.32-3.69-9.7.02-.53,1.81-4.07,2.01-4.18h0Z"/>
  <path class="st3" d="M1411.54,634.53c4.72-1.28,10.96,8.6,12.21,12.4,1.44,4.36-.07,9.18.75,13.65.52,2.81,3.28,5.73,3.39,8.07s-3.4,5.15-3.55,8.55c-.16,3.62,2.89,5.76,2.93,9.5.04,4.23-3.24,6.36-2.96,10.46.18,2.58,8.95,21.78-1.69,17.15-2.48-1.08-6.24-10.58-6.76-13.42-1.09-5.89.54-13.11-.2-19-.4-3.25-2.41-4.97-2.84-7.71-.71-4.42.58-9.85-.12-14.28s-5.1-8.54-5.72-13.47c-.49-3.93-.09-10.64,4.55-11.89h0Z"/>
  <path class="st3" d="M1618.64,1270.72c.25.06,1.89,1.42.96,1.91-.49,1.61-6.11,6.52-7.72,6.76-2.85.42-11.12-4.79-15.54-5.56-2.86-.5-5.74.17-8.36-.28-12.51-2.16-15.28-3.6-28.61.29-1.74.51-3.45,2.59-5.48,3.16-7.91,2.2-4.97-3.21-6.24-8.23-.8-3.14-5.06-7.18-5.34-9.14-.19-1.33,2.41-8.84,3.13-10.29,2.31-4.68,10.12,4.07,12.91,5.85,6.62,4.21,27.64,15.52,34.38,15.52,6,0,21.28-1.14,25.91,0h0Z"/>
  <path class="st3" d="M1653.97,1164.87c-.57-.66-.91-1.42-1.09-2.27.07-3.07,8.74-8.59,11.78-9.01,2.88-.4,18.7-.42,20.96.24,1.63.48,6.16,6.63,6.3,8.13.87,8.94-31.84,9.94-37.96,2.91h0Z"/>
  <path class="st3" d="M1642.88,1195.14c1.43,1.47.95,5.33,1.65,7.46,4.11,12.6,6.8,13.57,13.42,23.05,1.62,2.31,2.1,5.9,4.32,8.13l-4.29,3.14c-.97-.02-9.86-9.26-11.03-10.83-3.5-4.71-12.6-22.35-11.34-27.58.22-.91,2.46-4.22,3.34-4.48,1.2-.15,3.12.27,3.93,1.1h0Z"/>
  <path class="st3" d="M295.42,1138.11l-8.17,6.69c-8.54.58-19.28,1.46-24.24-6.91,4.39-5.75,13.1-3.63,18.46-5.59,1.86-.68,2.38-2.98,4.98-2.72,3.41,3.16,10.53,2.56,8.98,8.53h-.01Z"/>
  <path class="st3" d="M1226.32,1190.33c1.65-.28,6.55-.85,6.97,1.23.12.6-4.59,10.03-6.26,10.14l-9.06-6.38c-.47-2.17,6.63-4.7,8.35-4.98h0Z"/>
  <path class="st3" d="M1464.59,1253.45c.29,1.68-.23,2.99-.75,4.52s-5.96,11.2-6.89,12.3c-2.32,2.71-4.96,1.55-4.92-1.95s3.55-4.78,5.31-7.25c2.04-2.86,2.54-8.24,7.25-7.61h0Z"/>
  <path class="st3" d="M430.94,1263.05c4.36-.85,7.68,10.6,4.31,10.53-2.2-.04-5.65-8.06-4.31-10.53Z"/>
  <path class="st2" d="M1363.08,853.97c.67.69,4.87,1.87,6.1,2.06,8.24,1.26,24.86,3.84,32.48,2.88,4.32-.55,8.03-4.16,12.44.19,4.75,4.68-3.12,9.25-7.65,9.39-5.75.17-9.38-3.31-14.26-3.79-8.85-.87-11.09,2.13-17.28,2.96-2.31.31-11.72.19-14.45.05-3.87-.2-12.01-7.24-13.39-10.69-.71-1.77-.25-3.54-.76-4.99-.64-1.82-2.19-2.69-2.58-5.09-.69-4.19.87-10.39-.24-14.15-.58-1.94-3.92-3.47-4.84-5.72-1.09-2.68-1.38-28.36-.71-31.89.58-3.03,7.85-9.19,8.56-13.51,1.3-7.91-2.2-9.02-2.85-14.32-.28-2.27-.14-15.09,1-15.86,9.59,1.32,7.3,9.71,8.85,15.61.42,1.58,2.21,2.6,2.61,5.07.53,3.26-.42,6.9.26,10.29.65,3.22,5.33,8.6,5.55,10.83.19,1.93-3.35,8.57-3.48,13.23-.22,7.61,2.75,12.41,3.5,18.37.89,7.09-3.65,24.15,1.15,29.08h-.01Z"/>
  <path class="st2" d="M1202.58,730.38c-6.01,1.02-14.02-2.66-19.48.18-1.66.86-7.24,12.62-9.33,14.67-5.44,4.68-13.47,3.16-18.46,6.24-1.4.86-1.17,3.8-4.95,2.96-2.63-7.81-5.19-14.67-11.59-20.21-2.94-2.55-8.48-2.8-3.81-8.63,12.76,2.37,16.75,13.2,25.89,20.19,1.58,0,11.9-10.45,12.05-12.08.29-3.03-6.49-9.1-8.67-11.47,3.9-2.48,7.9-.97,12.41-3.88,6.44-4.16,5.09-16.71,14.7-11.73,6.68,3.47-3.49,8.63-3.24,14.64.3,7.36,5.66.05,8.28-.45,2.83-.54,16.18-.37,18.28.88,5.49,3.29-.19,11.8-3,15.35-2.5,3.16-8.86,6.82-9.06,10.22-.34,5.79,8.48,1.11,9.65,6.65.3,3.28-3.97,7-6.26,9.13-2.89,2.68-18.21,12.81-21.18,8.65-1.89-6.03,10.83-7.33,9.11-12.93l-2.33-1.5c-3.34,2.76-10.23,9.64-13.91,11.06-8.83,3.39-18.19,5-27.15,7.4-2.64.71-5.79,5.01-9.89,1.76-3.29-4.62,7.58-7.52,10.37-8.96,7.46-3.83,15.79-8.07,23.74-10.81,3.39-1.17,11.07.14,9.47-5.54-1.25-4.42-13.12-8.23.63-16.06,3.33-.01,4.85,7.81,9.42,6.63,1.45-.37,8.98-11.79,8.34-12.35h-.03Z"/>
  <path class="st2" d="M862.49,733.59c1.24,1.34,5.67,9.36,5.94,10.95.47,2.77-4.52,11.24-.2,12.64,4.62,1.5,13.17-7.55,15.38-11.29l10.94-.61c7.16,6.22-5.54,17.05-11.05,17.78-4.94.65-9.67-1.92-13.07,3.3-1.85,2.84,1.55,3.08.94,5.58-.55,2.23-8.97,7.33-7.58,12.19,2.62-.1,5.34.34,7.94-.21,8.31-1.74,14.82-6.63,24.25-5.59,1.45.16,2.38.09,3.29,1.49-2.24,1.7-4.46,5.35-6.77,6.65-7.97,4.49-18.45,2.39-26.15,7.21-1.34.84-.52,2.97-3.98,3.02-4.58.06-12.2-8.98-13.99-13-7-15.77-3.18-32.8,4-47.91,1.04-2.19,2.08-4.78,4.18-6.18.48-.04,5.29,3.31,5.92,3.99h.01Z"/>
  <path class="st2" d="M1090.29,741.88c-.92-.04-1.97.08-2.76.57-2.81,1.74-21.55,14.07-22.26,15.22-2,3.24-2.62,11.99-4.33,15.83-.43.97-5.71,7.82-6.66,8.7-2.28,2.14-19.1,9.74-22.29,10.34-3.71.7-9.47.38-8.9-4.57,12.49.55,19.19-11.98,26.39-20.16.91-1.94.89-3.49-.95-4.77-2.95,3.3-7.34,2.1-10.36,3.06-7.53,2.39-18.3,11.1-25.2,12.23-8.85,1.45-15.91-.87-16.74-10.51,3.86.55,7.99,1.63,11.94.9,9.61-1.79,19.91-8.62,28.32-11.03,4.69-1.34,10.74-.4,15.16-3.55.87-.95,1.83-5.5,2.06-7.06,1.06-7.04,1.08-17.03-1.06-23.69-.62-1.91-5.92-9.95-4.59-11.23,3.14.08,6.3-.51,9.35.72.57.23,9.1,7.35,9.37,7.9,2.19,4.39-1.86,7.62-2.1,11.17-.17,2.51.47,12.3,2.57,13.34,4.78,2.38,7.59-3.99,10.63-5.72,4.08-2.33,11.32-4,12.41,2.32h0Z"/>
  <path class="st2" d="M803.32,810.03l1.91-13.43c-.79,0-1.6-.08-2.4-.02-6.09.42-22.59,14.75-29.21,17.83-2.21.7-6.58,1.34-6.8-1.96-.73-11.1,13.54-23.22,17.7-33.21.96-2.32,3.67-15.34,4.33-15.82,6.02-2.77,19.78,2.93,17.24,10.49-.77,2.3-4.56,1.29-6.66,2.01-5.77,1.98-12.54,10.77-16.76,14.91-3.9,3.83-8.02,2.72-6.14,10.48,4.38,2.17,4.86-1.08,6.43-1.75.97-.42,2.43-.23,3.75-.84,7.62-3.51,20.28-8.95,21.38-18.08.2-1.64-.86-3.36-.65-4.56.49-2.75,3.36-8.33,3.53-10.72.18-2.58-1.37-5.9-.96-9.58.37-3.28,2.39-6.82,2.79-10.65.48-4.68.5-10.71-2.31-14.72-1.73-2.47-15.7-9.97-4.77-9.66,3.54.1,17.53,7.9,18.52,11.26s.64,25.9.23,30.55c-1.14,12.96-7.3,25.66-13.05,36.86-2.03,3.97-2.15,10.87-8.1,10.61h0Z"/>
  <path class="st2" d="M954,774.52l12.48-1.91c.59,8.82-5.53,7-10.49,9.18-2.38,1.04-10.83,6.77-8.62,9.94,6.84.26,9.56,11.07,9.61,16.87.02,2.14-.35,4.18-1.14,6.15-1.83.46-3.48-.12-5.07-1s-6.82-6.61-6.4-8c5.11-1.97,2.24-8.37,2.91-12.99-1.66-.43-1.92.69-2.88,1.43-6.32,4.87-15.38,15.79-21.18,19.12-5.02,2.88-10.46.92-11.3-4.96-.76-5.33,8.78-5.15,12.33-6.49,8.31-3.14,24.09-16.54,23.05-26.39l-7.74.42c-1.94,1.34-.1,7.26-1.4,10.12-.55,1.2-6.57,7.33-8.16,6.29-2.89-1.88-4.81-11.11-4.8-14.46,0-1.02,4.72-10.71,5.2-11.11,2.24-1.89,8.08-.25,11.39-1.09,6.71-1.71,13.85-9.82,20.61-11.06,2.03-.37,11.56-1.28,10.8,2.16-6.2,6.17-15.22,9.19-19.19,17.76v.02h0Z"/>
  <path class="st2" d="M1161.32,811.96c11.43,1.89,25.75-6.35,11.56-15.9-12.61-.38-23.93,9.3-36.08,12.11-3.17.02-11.46-8.72-9.89-11.42,3.87-4.05,7.83-2.98,11.63-4.22,17.37-5.69,31.44-10.45,49.4-13.94,4.47-.87,16.45.34,14.53,6.78-1.46,4.9-15.57,5.21-19.04,9.78,7.63,9.01,10.54,22.17-5.42,22.46-2.17.04-10.42-.52-12.35-.88s-4.5-2.63-4.33-4.77h-.01Z"/>
  <path class="st2" d="M600.61,846.79c5.12.2,12.04.02,16.94.73,5.78.84,12.01,4.58,19.12,2.96l1.44,1.44c1.95,8.12-4.4,9.34-10.92,9.93-7.83.7-33.14,1.2-40.07-.2-5.25-1.06-7.44-4.58-6.43-9.83,1.47-7.62,14.47-2.68,19.93-5.02h-.01Z"/>
  <path class="st2" d="M380.29,1076.12c-1.53,1.77-2.45,9.85-8.17,8.27-1.98-.55-13.03-12.04-13.22-13.82-.47-4.38,10.02-5.57,13.4-7.71,1.65-1.05,4.45-4.96,5.49-5.14,1.5-.26,2.44,2.17,3.9,2.63,6.9,2.13,9.21-1.85,14.21-4.58,7.24,2.98,17.3,7.17,5.95,13.6-4.81,2.73-19.7,4.59-21.56,6.76h0Z"/>
  <path class="st2" d="M463.47,1022.25c.38.63.35,13.16.06,14.73-.44,2.32-2.45,3.35-2.86,6.73-.56,4.59,1.64,17.44-1.59,19.52-10.1,6.5-8.92-2.73-10.31-8.53-.6-2.51-2.71-4.6-3.21-7.34s-.71-12.6-.02-14.94c.63-2.15,6.06-5.98,8.14-7.22,1.69-1.01,8.66-4.83,9.81-2.94h-.02Z"/>
  <path class="st2" d="M378.7,1009.3c-4.28,5.82-6.84,14.97-16.24,11.73-4.47-1.54-8.32-28.14,7.1-23.4,3.23,1,13.87,7.7,9.15,11.67h-.01Z"/>
  <path class="st2" d="M974.15,731.34c3.05,2.97-9.39,7.46-11.03,8.64-9.52,6.87-11.59,14.02-26.65,11.29-7.37-1.34-8.44-6.51-.93-9.12,4.23-1.47,10.62-2.26,14.69-3.55,7.96-2.52,15.45-6.47,23.92-7.26h0Z"/>
  <path class="st2" d="M483.72,935.29c-1.47,4.81-12.67-3.46-12.28-7.53.2-2.07,3.03-3.82,3.87-5.67,1.61-3.54,2.55-10.36,3.83-13.44,1.15-2.78,4.27-8.25,7.72-7.28,8.61,2.42-3.15,12.74-3.15,14.73,0,4.02.82,16.51,0,19.2h.01Z"/>
  <path class="st2" d="M945.97,709.39c1.5-.46,8.66-.42,10.39-.09,2.17.41,10.62,4.66,11.56,6.7,3.77,8.19-12.31,7.67-16.29,10.54-2.81-2.67-.61-6.6-2.19-10.32-.88-2.07-3.6-3.75-5.01-5.52.47-.48.87-1.1,1.55-1.31h-.01Z"/>
  <path class="st2" d="M1084.1,772.62c3.37-.96,16.63,11.88,18.69,14.84.69.99,1.43,1.02.48,2.46-1.83,2.8-10.83,3.95-13.55,1.97-1.92-1.4-10.35-17.1-5.63-19.26h.01Z"/>
  <path class="st2" d="M968.49,781.33c1.42-1.01,21.87,6,17.24,13.88-6.54,11.12-22.28-4.8-17.24-13.88Z"/>
  <path class="st2" d="M1141.97,765.75c-9.43,2.81-12.04-10-11.37-17.13,1.59-1.63,10.51,7.55,11.38,9.23,1.5,2.87,1.41,5.01-.01,7.9Z"/>
  <path class="st2" d="M1607.59,791.8c1.91,3.73-.03,9.16,1.47,12.46.64,1.4,3.95,3.65,5.23,5.33,1.81,2.36,4.63,7.65,6.24,9.12,4.09,3.73,12.14-.32,12.11,9.09-.02,6.76-4.92,3.57-9.93,4.54-5.74,1.12-8.53,3.73-15.53,2.59-4.35-.71-5.43-4.73-7.93-5.5-5.16-1.58-13.49-2.07-18.79-3.28-10.62-2.43,2.71-15.93,7.06-19.41,1.72-1.38,4.22-1.91,6.18-3.42,4.9-3.78,6.89-10.69,13.91-11.51h-.02,0Z"/>
  <path class="st2" d="M1546.47,1069.45c3.54-4.57,17.83-3.57,19.88-11.79h1.4c2.82,2.55,13.47,13.27,12.83,16.65-8.21,4.13-4.1,22.65-13.74,22.72-7.12.05-9.11-8.8-12.63-9.48-1.8-.35-7.45,5.87-10.99,1.39-3.1-3.93.77-7.82,1.6-11.05.69-2.69-.16-6.09,1.66-8.43h-.01Z"/>
  <path class="st2" d="M1628.49,913.93c1.32,1.41,3.06,8.91,4.28,10.11.78.78,3.48,1,5.08,2.12,4.72,3.32,5.97,8.43,4.4,13.82,7.99,28.25-16.45,2.02-25.05-3.77,1.62-4.68,5.07-7.5,8.27-10.94l-2.07-10.59c.94-1.97,3.62-2.31,5.09-.74h0Z"/>
  <path class="st2" d="M1658.79,1023.43c-3.31,3.69-2.55,7.25-9.44,7.44-4.58.13-5.51-1.86-8.89-2.72-7.77-1.95-15.27.78-7.35-9.76,2.63-3.5,7.98-8.22,12.37-8.75,5.56-.67,23.09-1.06,18.98,8.41-1.26,2.9-4.13,3.66-5.67,5.38Z"/>
  <path class="st2" d="M1097.96,964.55c4.32-.39,9.83,1,13.74-.96.54-.27.52-1.7,1.33-1.89,4.24-.98,13.73,2.39,15.21,6.66,1.28,3.71,1.62,10.51,2.45,14.82.28,1.46,1.74,2.7,1.79,3.93.1,2.69-4.14,7.86-4.57,9.83-.6,2.77,2.4,5.74,2.36,7.46s-4.78,8.2-5.23,9.78c-1.55,5.39-1.05,13.09-3.33,19.7s-11.51,19.35-12.2,24.33,2.6,4.88,2.95,8.54c.47,4.88-2.9,6.28-3.07,10.56-.2,5.09,3.88,6.89,2.97,12.01l-10.23-5.59c-9.32,5.7-8.61,9.39-20.7,6.29-4.81-1.23-13.03-4.71-17.6-5.44-5.92-.95-12.98,2.36-16.79-4.33-1.46-2.57-1.32-21.83-.9-25.95,1.13-11.18,2.05-16.64,2.27-28.64.38-20.87.61-41.7.64-62.58,0-2.2-1.25-4.17-.81-6.4.31-1.55,4.05-7.95,6-7.47l24.31,28.48c-.77,4.16-4.11,8.14-4.62,12.28-2.46,19.89,1.84,44.8.08,65.23,1.34,7.51,6.69,9.18,10.52,13.47s9.23,17.61,13.43,3.88l-.02-108h.02,0Z"/>
  <path class="st2" d="M1265.94,1019.26c3.84,3.05,3.06-14.42,2.89-15.86-.51-4.28-2.92-6.77-5.72-9.7l4.24-4.98c4.06,3.12,13.05,7.39,13.88,12.85-.37,8.47-1.76,17.35-.9,25.84.53,5.24,3.39,9.14,3.87,14.37,1.62,17.82-2.13,39.23-.06,56.69.66,5.57,5.23,6.02,5.83,10.49s.65,11.39-2.97,14.4c-4.92,4.09-8.54,1.11-13.89.54-10.02-1.08-17.74-.65-24.47-10.08-.44-.62-3.62-6.52-3.68-6.9-.21-1.3,2.11-2.98,2.54-4.83s.52-6.55.25-8.5c-.42-3.03-2.14-3.39-2.99-5.65-3.67-9.74-.87-38.62-.86-50.97,0-6.02.72-8.55.98-13.39.18-3.26-2.03-6.56-2-9.61.04-3.96,3.32-9.36,3.91-13.42l-4.69-10.42c8.17-12.29,11.72-1.69,15.33,6.43,1.72,3.87,2.02,5.49,3.39,9.09,1.72,4.53,3.44,9.07,5.12,13.6h0ZM1268.8,1025.02c-9.77-.74-4.74,14.83-4.79,20.64-.05,5.08-2.56,15.98-.46,20.62.8,1.78,4.44,3.38,5.06,5.49,1.18,4-2.18,12.2,3.07,12.75-.84-7.79,1.18-17.91-.04-25.38-.44-2.68-2.5-3.77-2.88-6.72-.53-4.12,1.03-26.45.04-27.4Z"/>
  <path class="st2" d="M1168.65,973.54c5.39,4.72,10.22,14.86,19.41,7.69,1.27-5.65-.71-8.96-2.74-13.78,4.91-1.78,7.35,4.31,8.4,8.39,2.01,7.82.18,13.67.3,20.73.08,4.23,2.42,8.93,2.84,12.6.48,4.17-1.4,8.12-.98,11.46.3,2.42,2.23,3.5,2.68,5.13,1.21,4.32-3.28,7.98-6.05,10.78-6.05-5.18-3.42-14.37-3.32-21.62.02-1.71-.88-3.4-.84-4.79.07-2.23,1.73-4,1.69-6.58-.09-5.57-3.53-11.24-9.88-9.09-3.88,1.32-1.52,14.47-1.53,17.58,0,6.22.01,12.26.04,18.29.06,12.36-.41,24.82.12,37.22.32,1.06,5.99,6.71,7.12,7.28,2.63,1.33,4.9.63,7.06,1.58.57.25,6.37,5.29,6.56,5.92,1.18,3.85-.22,21.82-4.27,23.2-4.52.33-8.36.92-11.94-2.22-1.08-.95-1.65-3.21-2.53-3.42-2.59-.64-7.09.37-10.28-.07-2.57-.35-13.21-3.89-14.55-5.6-.61-.78-1.31-1.41-1.34-2.5l.87-123.86c2.23-1.62,11.04,3.83,13.16,5.69h0Z"/>
  <path class="st2" d="M978.27,1084.64c-4.25,3.34-3.66,12.6-8.64,13.97-3.47.96-3.89-2.24-6.52-2.73-2.32-.44-5.18.51-7.49-.19-1.99-.6-9.74-13.72-14.03-16.68-3.14-2.17-7.5-2.4-9.53-6.86.53-3.81,2.88-6.59,3.46-10.61,1.82-12.59,2.98-25.63,3.09-38.1.12-14.57-2.31-43.07.08-55.66.37-1.94,2.1-3,2.41-4.31,1.62-6.7.9-13.65,7.63-18.27,3.16,3.77,8.13,7.21,11.04,11.02.83,1.09,5.41,8.97,5.5,9.71.32,2.67-2.28,6.45-2.65,9.46-2.01,16.47,1.6,36.94.07,53.81-.62,6.81-4.44,11.03-2.9,19.14.59,3.11,8.63,8.79,10.96,12.08,1.86,2.62,3.06,7.49,4.9,9.49,2.75,3,12.14,4.79,12.82,7.4.24,4.85-7.66,5.34-10.19,7.33h0Z"/>
  <path class="st2" d="M714.15,988.65l3.82.32c.7.49.75,1.22.89,1.98.88,4.64.66,26.56.02,31.7-.42,3.39-2.5,5.2-2.92,8.59-1.95,15.68,2.63,28.43-2.61,44.42-4.28,13.07-4.12,17.71.21,30.96,1.04,3.2,4.17,4.61,1.92,9.56-.94,2.07-12.46,7.65-14.23,7.49-3.51-.32-8.28-7.84-9.05-11.05-.54-2.25.06-4.59-.65-7.03-1.2-4.11-5.94-5.29-5.4-11,.27-2.86,2.47-4.05,2.91-6.76.99-6.02-.74-13.97.03-20.13.4-3.25,2.41-4.97,2.84-7.71,1.19-7.45-.9-17.31.03-24.92.41-3.38,2.43-4.42,2.86-6.73.95-5.01-.83-11.83.25-17.02.21-.99,3.63-9.98,4.04-10.35,3.79-3.47,9.52.98,13.57-1.8l1.47-10.52h0Z"/>
  <path class="st2" d="M997.86,953.16c5.81-1.73,7.6,9.2,9.84,12.88-2.25,32.64,7.19,66.86-10.32,96.12-3.27,5.47-7.86,3.41-8.77-2.17-1.23-7.47-.73-29.27-.09-37.41.39-4.95,2.46-9.72,2.91-14.37,1.3-13.69-1.34-29.37.13-43.06.35-3.24,2.93-11,6.3-12h0Z"/>
  <path class="st2" d="M622.88,1065.81c.8-3.52,5.32-9.16,5.8-14.35.41-4.33.67-18.27-.07-22.1-.5-2.64-4.81-5.02-5.56-8.9-1.52-7.88,10.03-15.47,17.11-13.21,1.9,1.06-1.54,2.81-1.92,4.83-.32,1.74-.33,6.87,0,8.6.75,3.92,6.18,4.12,5.83,11.56-.22,4.85-4.71,8.15-5.62,11.73-1.18,4.62.56,10.97-.45,15.87-.63,3.04-4.17,7.73-5.23,11.09-1.71,5.4-.03,12.52-7.49,13.68l-2.42-1.51c.75-4.95-1.03-12.77,0-17.28h.02,0Z"/>
  <path class="st2" d="M661.01,1090.48c6.33-1.38,18.47,8.64,21.42,13.67,4.86,8.29-10.63,9.38-14.95,12.98-3.77,3.14-1.43,7.31-8.6,6.8-7.68-.55-10.1-6.07-9.17-13.06.31-2.3,5.43-15.03,6.9-17.08,1.16-1.61,2.37-2.87,4.39-3.32h0Z"/>
  <path class="st2" d="M599.36,1108.76c9.3,4.46,10.94,15.53,17.72,22.32-5.78,5.11-17.54,16.34-24.69,8.53,3-10.57-3.99-24.06,6.96-30.85h.01Z"/>
  <path class="st2" d="M1012.2,1084.67c4.48-1.49,11.68,3.98,13.34,7.56,1.36,2.94-4.27,8.57-7.21,7.21-3.27-1.51-12.13-12.77-6.13-14.77Z"/>
  <path class="st2" d="M986.63,1341.27c-1.19,3.91-6.08-.43-7.65-.98-10.94-3.83-22.1-7.73-32.62-12.49-1.27-.58-3.2.07-3.88-.93.09-4.74,25.54-12.32,29.45-16.63,3.69,1.28,14.7,10.21,14.7,13.76s.76,14.78,0,17.28h0Z"/>
  <path class="st2" d="M714.76,1244.07c2.03-.41,13.71-.91,13.68,1.22-3.78,2.24-14.94,16.32-19.21,14.41-2.43-1.09-2.47-9.23-1.73-11.38.45-1.31,5.86-3.97,7.26-4.26h0Z"/>
  <path class="st2" d="M394.46,1312.96l.97,23.99c-6.12.64-10.72-.16-15.34-4.32,2.42-.18,11.51-23.02,14.37-19.67Z"/>
  <path d="M1098.91,843.62"/>
  <path class="st3" d="M1268.8,1025.02c.99.95-.57,23.28-.04,27.4.38,2.95,2.44,4.04,2.88,6.72,1.22,7.47-.8,17.59.04,25.38-5.25-.56-1.9-8.76-3.07-12.75-.62-2.11-4.26-3.72-5.06-5.49-2.1-4.64.42-15.54.46-20.62.05-5.81-4.98-21.38,4.79-20.64Z"/>
  <g>
    <polygon class="st3" points="483.72 935.29 483.72 935.28 483.72 935.28 483.72 935.29"/>
    <path class="st3" d="M911.05,841.17h0s-.04-.03-.04-.03c.02.01.03.02.04.03Z"/>
    <path class="st3" d="M881.82,839.36c-.11.25-.23.49-.34.72h.46s.08-1.11.08-1.11c-.04.02-.06.03-.07.03,0,0,0,0,.01,0,.02,0,0,.05-.03.11l-.12.25Z"/>
    <path class="st3" d="M892.77,848.42l-7.09,3.01-.31,4.18.47-.36c3.09-2.41,5.3-4.54,6.93-6.82Z"/>
    <polygon class="st3" points="945.97 709.39 945.97 709.39 945.97 709.39 945.97 709.39"/>
    <path class="st3" d="M893.13,847.91c1.17-1.76,2.02-3.63,2.69-5.79l-1.49.02c-1.02,1.28-2.02,2.45-2.95,3.47l.61-.21,1.15,2.51Z"/>
    <path class="st3" d="M901.88,858.72c2.18-.04,2.53-.56,3.08-2.8.52-2.04,1.3-7.54,1.98-13.98h-.5c-1.63,7.48-4.26,12.5-8.91,16.4,1.95.27,3.34.39,4.35.38Z"/>
    <path class="st3" d="M888.72,843.42l-2.44.04-.29,4,1.65-.57-1.3-.44,1.2-1.5c.4-.5.8-1.01,1.18-1.53Z"/>
  </g>
  <g>
    <polygon class="st3" points="960.45 837.69 960.38 840.73 963.54 840.73 963.61 837.69 960.45 837.69"/>
    <polygon class="st3" points="957.12 852.91 957.47 854.31 963.18 854.31 963.26 850.83 960.1 850.83 960.07 851.88 957.12 852.91"/>
    <path class="st3" d="M951.33,845.11l2.16-1.92,2.35,2.3c.03-.85.06-1.69.08-2.53.03-1.18.05-2.38.06-3.6h-4.49l-.15,5.75Z"/>
    <polygon class="st3" points="963.37 847.44 963.45 844.12 960.29 844.12 960.21 847.44 963.37 847.44"/>
    <polygon class="st3" points="967.84 844.11 967.76 847.44 970.76 847.44 970.84 844.11 967.84 844.11"/>
    <polygon class="st3" points="967.66 850.84 967.58 854.31 970.25 854.31 972.32 852.47 970.61 853.18 970.66 850.84 967.66 850.84"/>
    <polygon class="st3" points="968.01 837.69 967.94 840.73 970.94 840.73 971.01 837.69 968.01 837.69"/>
    <path class="st3" d="M955.53,853.16l.02-1.58c.06-.95.11-1.9.16-2.86h-4.46l-.15,5.79,4.43-1.36Z"/>
  </g>
  <path d="M969.84,847.34"/>
  <g>
    <path class="st3" d="M1011.14,845.9l17.25.03,1.73-1.43-19.01-.04c.05.52.06,1,.03,1.44Z"/>
    <polygon class="st3" points="1031.04 844.5 1032.69 846.21 1033.74 844.51 1031.04 844.5"/>
    <polygon class="st3" points="1025.15 849.35 1021.06 849.35 1023.54 850.56 1025.15 849.35"/>
  </g>
  <g>
    <path class="st3" d="M1457.88,1165.64c-2.15-17.26,2.34-39.63.07-56.7-.58-4.29-4.74-4.93-5.61-8.79-1.63-7.26,1.35-17.63-.84-25.07-.79-2.69-4.15-9.91-5.58-12.65s-5.67-7.17-6.1-9.33c-.85-4.25,2.07-15,1.74-19.82-.18-2.63-3.64-15.6-4.75-18.37-2.56-6.41-7.02-7.72-5.55-16.07.49-2.75,2.61-4.98,2.59-7.77-.02-3.9-.43-12.62-.95-16.39-.56-4.08-3.61-9.58-3.45-14.31.25-7.39,7.66-19.27,7.39-26.99-.04-1.34-2.79-12.2-3.38-13.96s-5.83-11.27-6.93-11.54c-4.78.66-9.33,2.65-14.21,2.91-4.64.25-8.86-1.14-12.46-1.01-3.24.11-4.36,2.44-6.77,2.9-4.78.91-10.26-.66-15.67.65-9.05,2.2-11.28,10.92-20.77,11.86-13.06,1.29-20.92,2.77-33.66,5.69-1.92.45-4.31-.21-6.44.28-2.46.57-3.86,3.2-5.14,3.47-2.59.55-3.1-2.74-5.03-3.25-7.92-2.1-9.11,1.12-14.82,2.62-10.51,2.76-20.55,4.36-30.01-2-1.05-.37-2.99,3.5-6.58,3.62-1.41.04-14.34-1.63-16.15-2-2.83-.57-7.35-3.76-10.73-4.13-11.86-1.3-15.82-2.37-31.75-5.21-8.13-1.45-5.12-1.68-19.89-5.07-6.91-1.59-15.14-3.1-31.3-6.07-10.64-1.95-16.01-2.93-18.85-3.29-7.5-.95-9.42-.74-27.37-1.69-18.91-1.01-24.53-1.65-26.89-1.94-9.94-1.21-9.84-1.82-18.92-3.05-13.18-1.8-25.85-1.88-50.64-1.97-7.84-.03-6.52.05-14.33.02-33.6-.13-38.31-1.52-58.58-1.07-4.89.11-17.7.49-34.11,2.12-5.17.51-5.85.67-34.08,4.36-24.75,3.23-29.05,3.74-34.15,4.29-14.36,1.55-14.23,1.19-24.81,2.47-17.23,2.09-29.92,4.55-32.48,5.05-25.29,4.96-21.16,6.78-32.76,7.62-12.67.92-21.71-.95-34.4,4.56-3.29,1.42-5.86,2.93-7.56,4.01-7.56-4.49-8.86-9.43-18.83-6.35-.65.2-8.65,8.07-9.84,9.35-2.42,2.59-2.72,5.53-6.27,8.13-2.6,1.91-6.09,2.48-8.47,4.01-6.09,3.92-18.05,14.74-23.38,16.92-4.66,1.91-9.48.18-11.32-4.6.42-3.13,2.53-4.13,2.95-7.6.8-6.61.89-27.15.02-33.66-1.06-7.98-10.76-2.08-14.83-5.13-.7-.53-2.74-9.33-7.21-10.24-1.31-.27-3.26,1.42-5.33,1.53-4.6.26-9.89-.59-14.34.05-2.88.41-11.08,4.56-11.88,7.31-2.22,7.6,2.57,25.16-2.09,31.5-1.77,2.41-5.57,2.77-5.78,6.77-.26,5.01,5.78,7.62,5.58,10.33l-9.86,14.12c-.37,4.63-2.57,9.69-3.36,13.92-.93,5.01,1.78,12.08-5.8,13.86,1.19-4.15-.21-9.29.06-12.8,1.03-13.27,6.84-26.05,6.39-40.19-.15-4.63-3.6-10.23-3.6-10.81,0-1.45,2.19-3.09,2.7-5.02,2.47-9.32.13-20.27,1.16-29.55.37-3.4,2.72-7.04,2.82-9.66.1-2.62-1.53-5.35-.92-8.59.11-.54,4.31-5.36,4.82-5.71,4.96-3.43,6.06-.05,10.03.51,28.12,3.98,62.5-4.95,91.19,3.83,217.45-.92,434.57.76,651.75,1.85,22.07,7.65,44.89-8.79,68.06.08l47.86-.23,5.47-7c-5.07-6.21-1.47-14.45-3.12-20.9-.69-2.69-4.65-5.12-5.33-8.11-1.07-4.72.42-11.21-.17-16.14-.85-7.06-4.09-21.54-6.31-28.24-.42-1.27-5.84-11.32-6.73-12.47-2.74-3.56-8.66-4.13-10.27-7.97-1.35-3.22-3.32-12.95-3.58-16.57-.71-9.84,1.87-19.5-.05-29.71-.68-3.58-6.2-7.47-.3-11.92l10.46,2.78,2.35-1.45v-28.79c-4.04-3.7-13.35-10.41-18.69-11.06-18.22-2.21-40.81,1.69-59.51.05-3.33.64-5.27,6.29-9.6,5.76l-138.99-.22c-4-2.05-4.98-5.79-5.37-9.99-.44-4.73.87-11.65.76-16.11-.07-2.91-2.61-6.52-2.55-8.56s2.2-6.05,2.53-8.91c.44-3.89-.48-12.56-3.01-15.49-1.63-1.89-9.01-1.37-10.99.05-2.44,1.75-7.54,9.41-10.89,10.69-3.35,1.28-6.75-.16-9.83.73-.47.14-8.02,4.65-8.39,5.05-8.01,8.71,10.57,14.14,3.22,21.67-4.65.04-9.9-2.64-13.79,1.35-4.57,4.68,1.69,13.25-1.55,14.01l-58.21-2.16c-5.96-1.75-.82-15.13,2.09-18.34-2.48-4.6-5.45-7.32-10.97-7.41-2.28-.04-4.35,1.02-6.63,1.03-6.02.03-12.07.07-18.09-.22-3.07-.95-4.8-8.99-6.34-10.94-1.79-2.27-16.3-1.72-17.22-.26,1.61,11.2-7.55,18.27-10.21,28.67-2.83.4-1.8.01-2.49-1.39-3.9-7.94.17-11.45-.87-17.29-1.1-6.13-8.48-3.82-12.74-4.58-3.51-.63-6.16-3.14-10.79-3.61-8.67-.89-16.66-.44-23.54,5.22-6.74,5.55,1.12,8.29,2.98,14.38,1.4,4.58,1.05,9.54,2.8,13.95-1.59,2.32-48.74.54-56.16.96-3.23.18-7.04,2.1-9.52,1.92-3.09-.22-6.51-4.73-9.65-4.7-1.6.02-3.07,1.64-4.84,1.81-15.54,1.53-31.44.8-46.89,3.01-5.05.72-13.01,5.19-18.25,5.74-23.28,2.43-51.71-1.52-75.36-.6l-7.18-5.29-25.05.05c-2.52.46-3.78,5.6-9.55,5.87-6.91.32-6.26-5.21-11.49-5.91-21.01-2.8-48.36,2.15-70.06.1-6.23,1.04-13.28,10.66-13.09,16.71.13,4.05,5.19,10.07,2.96,15.87,5.17,1.04,6.99-3.82,10.97,1.03,2.67,3.24,3.73,8.79,3.48,12.91-.23,3.76-2.41,6.82-1.95,10.44.88,6.95,8.01,6.11,12.37,8.81,5.67,3.51,6.29,9.08,16.43,5.7,2.11-1.15-2.08-4.15-1.89-5.84l-2.56-15.8c.42-1.36,11.98-13.45,13.1-13.94,2.03-.89,5.67.1,6.28,2.37.97,3.65-1.89,7.2-2.38,11.21-1.05,8.7.65,11.72-3.24,20.75-1.06,2.45-5.16,8.16-5.49,9.87-1.2,6.19,1.46,17.16-.21,22.82-1.49,5.07-6.68,3.09-5.61-4.65.44-3.16,3.18-4.44,1.48-8.09-.34-.74-10.59-11.02-11.48-11.56-4.29-2.61-17.88-2.12-22.36-.3-1.78.72-7.68,8.92-7.84,11.43l-10.58.46c.53,4.08-2.36,7.19-3.42,10.49-2.88,8.95-3.46,18.61-6.66,26.94-2.21,5.74-6.9,10.96-6.05,17.45.29,2.18,2.59,6.16,2.49,6.82-.23,1.6-6.3,8.95-8.94,8.33-3.2-2.64.82-6.5,1.34-10.16,1.38-9.75,1.24-20.47,3.02-30.57,1.3-7.33,4.48-17.73,5.65-25.06.7-4.39-.72-10.15.08-14.32.6-3.16,4.83-4.53,5.54-6.94,1.21-4.16-.5-11.36.25-16.06.4-2.52,2.36-4.3,2.76-6.83,1.34-8.42.75-16.09,3.85-24.95,1.13-3.23,4.89-6.31,5.59-9.77.63-3.14-.25-6.38.27-9.33.63-3.57,4.74-11,5.49-14.66,2.28-11.1,2.9-23.03,6.21-34.1.98-3.3,5.18-10.16,5.51-13.76.2-2.23-1.01-4.34-1.04-6.63-.04-2.8,2.27-10.37-2.47-11.9-7.27-2.34-12.32,12.31-14.85,16.56-1.97,3.32-6.25,7.52-7.75,11.44-2.96,7.75.91,24.22-.73,32.87-.25,1.27-3.58,4.89-5.23,4.3-6.73-5.3-1.62-14.87-3.86-22.14-.9-2.93-4.75-4.24-5.31-7.17-1.12-5.85,1.07-13.12-.67-19.49-.52-1.89-4.18-10.66-5.25-12.02-2.26-2.86-6.31-6.1-9.51-3.06-.41.38-5.41,8.44-5.91,9.44-6.94,13.92-6.9,25.92-9.45,40.46-.38,2.13-2.32,3.92-2.75,6.85-1.02,7.03.97,16.03-.13,22.9-.59,3.67-4.98,7.37-5.65,11.63-1.08,6.92.98,16.03-.12,22.92-1.39,8.67-5.35,16.45-8.12,24.51-2.92,8.52-2.81,17.33-4.58,26.13-2.07,10.3-7.04,22.12-8.38,32.89-.65,5.19.95,12.43,0,17.28-.33,1.67-4.28,7.66-5.26,10.1-2,4.98-4.89,20.57-12.04,14.71-2.11-8.71,4.74-18.39,3.71-24.55-1.24-7.36-13.88-15.21-13.12-20.18s5.99-3.74,9.01-5.45c1.78-1,8.03-8.55,8.63-10.56,1.7-5.74-1.02-15.83.59-20.52.6-1.76,8.84-6.32,8.58-9.72-.51-6.77-13.98-9.26-12.36-19.95,1.11-7.4,6.29-11.41,12.28-14.84.93-7.61-1.59-18.94.62-26.04,1.03-3.31,3.61-4.1,4.98-6.54,6.83-12.21,11.84-23.12,15.27-36.55,1.28-4.98.89-8.09,4.03-13.25,1.45-2.37,4.41-2.15,3.72-6.43-.93-5.78-8.64-9.16-13.02-12.1-3.02-.48-11.68,6.44-16.12,6.64-6.88.31-7.77-6.97-15.34-6.86-4.88.07-7.37,3.23-11.59,3.83-7.38,1.06-16.57-.86-23.93.06-4.71.59-7.17,5.04-11.96,1.44-1.55-1.17-2.03-3.2-3.38-4.29-9.05-7.34-15.9-9.65-26.32-2.35-.97.68-5,4.47-5.33,5.23-1.08,2.47.37,6.08-1.83,7.76-1.68,1.29-4.21.55-6.3,1.38-2.56,1.02-6.32,5.83-8.71,7.6-2.04,1.51-5.93,1.66-7.14,4.37-1.57,3.51.38,9.05-.7,12.74-.49,1.66-5.92,13.33-7.09,15.94-1.17,2.61-4.35,4.69-4.71,7.64-.34,2.74,2.59,5.58,3.14,8.51,1.32,7.05-1.4,12.93-4.42,19.14-1.66,3.42-8.24,12.06-8.62,14.43-.69,4.29,3.78,7.81,3.76,12.29,0,.78-2.89,14.44-3.16,15.17-.57,1.52-3.26,2.36-4.61,4.03-1.6,1.98-4.98,8.9-5.43,9.19-4.75,3.06-11.61-1.26-13.24.92h0c-.89,1.2-.12,4.5,8.6,14.34.74,0,5.46,3.57,5.16,5.1-3.86,4.13-1.99,8.66-4.65,13.68-1.4,2.64-6.4,5.64-6.76,7.59-.47,2.59.42,5.86-.03,8.62-.65,3.98-3.43,4.29-2.9,10.66.35,4.17,3.19,5.55,3.01,9.52-.14,3.07-2.45,4.95-2.89,7.75-.82,5.22,2.36,10.9-3.96,13.31-3.96,1.51-9.58.1-12.39,3.9,14.45,6.5,1.63,7.96,1.13,13.59-.16,1.78,2.9,4.94,3.42,7.75,2.71,14.68-7.85,18.74-12,29.79-1.35,3.6-4.08,15.33-4.13,18.99-.14,9.88.13,8.65-1.84,18.23-.47,2.25.31,4.63-.48,7.2-.91,2.95-5.77,5.93-7.67,8.64-7.93,11.29-10.01,27.76-14.9,39.8-1.19,2.93-4.9,6.17-5.4,8.08-.7,2.67-2.32,21.88-2.35,25.52-.03,3.64,2.71,8.12,1.8,11.26-.28.96-4.26,5.17-5.42,7.12-3.58,6.03-5.96,13.89-11.78,17.94-8.68,6.04-20.75,4.85-28.25,13.06-11.34,12.41-9.87,30.67-22.3,40.29-7.77,6.02-6.32,3.7-12.31,12.44-1.26,1.84-4.5,3.78-5.02,5.54-.64,2.16-.55,15.42,0,17.84.8,3.51,5.07,5.47,6.71,8.65,1.9,3.71,1.09,6.35,1.93,9.58.68,2.59,2.95,3.39,2.78,6.92-.29,5.9-7.84,5.57-8.61,7.81-.83,6.66.7,14.38-.21,20.9-.42,2.94-2.34,5.25-2.74,7.82-.65,4.17.53,9.22-.12,13.32s-3.92,5.82-2.8,11.55c.39,1.99,6.07,7.76,8.16,8.16,3.64.69,27.94.61,31.45-.18,2.15-.48,16.47-12.69,16.87-13.87,1.98-5.76-5.36-5.87-5.68-9.49,2.49-5.59,3.75-10.03,11.02-9.03,5.4.75,10.05,4.77,16.88,1.88-1.03-7.85-8.9-8.67-15.47-9.2-2.5-4.97-2.47-10.58-4.22-15.74-1.49-4.39-7.09-11.82-7.92-15.12-.79-3.14.17-6.74-.45-10.1-.44-2.38-2.25-4.05-2.61-6.03-.68-3.74.45-8.2-.28-12.2-1.05-5.76-7.09-8.65-6.45-15.46.49-5.19,4.24-5.89,5.68-9.74,2.13-5.7.04-11.96,1.45-17.74l12.68-8.44c10.35-2.62,23.5,3.11,32.43-3.08,5.96-4.13,8.49-15.56,8.94-22.54.11-1.67-1.24-3.29-.62-5.55,2.9-10.56,22.05,1.57,21.79,4.42-.66,7.09-19.73,9.92-20.8,21.52-.6,6.57,6.05,4.62,10.2,5.69s5.29,4.03,8.26,5.18c4.81,1.87,9.2,1.08,14.85,4.35,7.66,4.42,16,11.86,13.11,21.53-2.12,7.08-10.07,10.63-7.97,18.45,1.42,5.26,3.81,5.51,2.42,13.43-2.24,12.73-8.14,27.17-9.91,40.01-.29,2.09.97,3.96.39,6.07-.43,1.56-3.76,4.21-4.69,6.89-3.61,10.39-2.31,18.23-3.85,27.82-.39,2.4-2.19,4.01-2.61,6.03-2.23,10.67,3.19,23.89,15.85,16.81,5.53-3.09.34-6.35-.91-9.13-5.03-11.17,4.94-26.3,8.56-36.96,5.38-15.84,6.62-29.85,9.99-45.68,2.9-13.59,14.62-19.96,28.15-17.8,1.43.23,10.14,5.27,10.14,1.38v-21.11c7.97-11.2,20.39-11.38,33.16-10.13,11.33,1.12,19.61,12.57,19.71,23.57.03,3.46-2.91,10.6-.8,12.7,5.04,5,4.27-4.23,4.98-6.52,1.19-3.81,6.05-7.11,9.46-8.81,2.59-1.29,4.62.58,5.27-3.36.86-5.19-4.66-8.33-5.49-13.26-.55-3.21-.46-19.94.84-22.09,1.09-1.81,5.2-2.89,5.69-4.91.33-1.35-.87-3.69-.87-5.54.02-5.88-.98-8.55,3.37-13.03,8.71-8.97,19.64.57,25.47,8.19,9.82,12.84-4.56,11.7-13.5,15.46.3,2.75-.31,5.79.11,8.48,1.12,7.08,3.73,15.38,5.5,22.33.56,2.22-.14,4.71.62,7.05.9,2.79,12.1,10.19,14.22,15.54s-1.18,15.57,8.97,16.01c9.47.41,8.97-10.15,10.1-16.63.62-3.59,2.5-4.9,1.77-9.64-.61-4.02-4.49-6.37,1.46-10.16,6.64-4.23,9.31-5.68,13.39-13.48,2.99-5.71,2.36-10.26,3.86-15.34.64-2.19,4.25-6.84,5.51-9.84,3.55-8.47,6.98-27.36,7.48-36.67.44-8.18-2.09-17.08-.89-24.88,2.21-14.32,11.38-30.17,19.11-42.32,9.07-14.24,21.48-17.34,33.54-26.93,3.58-2.84,12.34-13.54,15.42-14.41,4.02-1.13,6.35,2.79,9.05,2.56.46-.04.76-1.63,1.75-2.28,12.5-8.19,22.11-8.45,35.13-12.81,15.13-5.07,11.06-6.38,36.36-14.51,9.47-3.04,18.5-5,36.57-8.92,11.92-2.59,21-4.27,36.32-7.11,15.3-2.84,20.17-3.54,22.1-3.81,9.71-1.37,11.94-1.28,19.84-2.69,10.05-1.79,9.87-2.56,19.02-4.17,9.39-1.65,11.53-1.19,23.11-2.79,8.47-1.17,12.69-2.16,19.41-3.39,0,0,15.18-2.78,38.36-4.93,35.34-3.28,81.19.48,88.39,1.09,19.17,1.11,35.84,2.35,49.52,3.48,16.09,1.33,28.42,2.55,35.84,3.29,7.19.71,12.31,1.22,19.4,2.04,8.5.98,17.62,2.03,29.35,3.85,6.56,1.01,16.59,2.58,29.02,5.26,10.19,2.2,13.71,3.35,26.4,6.58,33.29,8.47,33.43,7.79,51.11,12.24,11.79,2.97,20.82,6.96,31.86,11.33,8.47,3.35,19.67,7.41,28.07,9.36,6.75,1.56,10.05.07,15.41-2.48,6.93-3.3,8.86,3.46,14.6,5.1,3.54,1.01,6.48-.06,9.97,2.51,3.13,2.3,4.64,7.05,6.84,9.48,4.31,4.78,11.22,5.14,15.43,7.61,6.9,4.04,16.61,20.05,25.17,22.82,2.22.72,9.19.82,10.55,2.41.89,1.04,1.07,6,1.94,8.13,1.41,3.45,4.99,5.74,6.76,8.59,6.57,10.57,9.77,20.89,14.15,31.92,1.62,4.09,7.28,12.5,7.88,15.16.76,3.38-.77,5.56-.56,8.21.23,2.97,3.51,7.48,3.64,9.91.1,1.9-4,9.34-3.93,15.28.16,12.66,3.83,23.03,3.96,36.49.08,8.96-1.18,19.74-.07,28.78.53,4.3,3.92,7.32,4.61,10.75.45,2.26-.91,11.66,2.6,10.82l19.72-27.38c-.27-3.31-2.5-5.13-2.93-8.58ZM1337.93,795.18c.58-3.04,7.85-9.19,8.56-13.51,1.3-7.91-2.2-9.02-2.85-14.32-.27-2.27-.14-15.09,1-15.86,9.59,1.32,7.3,9.72,8.85,15.61.42,1.58,2.21,2.6,2.61,5.07.53,3.26-.43,6.89.26,10.29.65,3.22,5.33,8.6,5.55,10.83.19,1.93-3.35,8.57-3.48,13.23-.22,7.62,2.75,12.41,3.5,18.37.89,7.09-3.65,24.15,1.15,29.08h-.01c.67.69,4.87,1.87,6.1,2.06,8.25,1.27,24.87,3.85,32.48,2.88,4.33-.55,8.03-4.16,12.44.19,4.75,4.68-3.12,9.25-7.65,9.39-5.75.17-9.39-3.31-14.26-3.79-8.86-.87-11.1,2.12-17.28,2.96-2.31.31-11.72.19-14.45.05-3.87-.21-12.01-7.25-13.39-10.69-.71-1.77-.25-3.53-.76-4.99-.63-1.82-2.18-2.69-2.58-5.09-.69-4.18.88-10.38-.24-14.15-.58-1.94-3.93-3.47-4.84-5.72-1.09-2.68-1.39-28.37-.71-31.89ZM1134.93,725.58c12.77,2.37,16.75,13.2,25.89,20.19,1.58,0,11.9-10.45,12.05-12.08.29-3.03-6.48-9.1-8.67-11.47,3.9-2.48,7.9-.96,12.41-3.88,6.43-4.17,5.09-16.72,14.7-11.73,6.68,3.46-3.49,8.62-3.24,14.64.3,7.36,5.66.05,8.28-.45,2.83-.54,16.19-.37,18.28.88,5.5,3.29-.19,11.8-3,15.35-2.5,3.15-8.86,6.81-9.06,10.22-.34,5.79,8.49,1.1,9.65,6.65.3,3.28-3.97,7-6.26,9.13-2.88,2.68-18.21,12.81-21.18,8.65-1.89-6.03,10.83-7.33,9.11-12.93l-2.33-1.5c-3.34,2.76-10.23,9.65-13.91,11.06-8.83,3.39-18.18,5-27.15,7.4-2.64.71-5.79,5.01-9.89,1.76-3.3-4.63,7.58-7.53,10.37-8.96,7.46-3.84,15.79-8.07,23.74-10.81,3.4-1.16,11.07.15,9.47-5.54-1.25-4.42-13.12-8.23.63-16.06,3.33-.01,4.85,7.81,9.42,6.63,1.45-.37,8.98-11.79,8.34-12.35h0s-.03-.01-.03-.01c-6.01,1.02-14.01-2.66-19.48.18-1.66.87-7.24,12.62-9.33,14.67-5.44,4.69-13.46,3.17-18.46,6.24-1.4.87-1.17,3.8-4.95,2.96-2.64-7.8-5.19-14.67-11.59-20.21-2.94-2.54-8.47-2.8-3.81-8.63ZM1130.6,748.62c1.59-1.64,10.5,7.55,11.38,9.23,1.5,2.87,1.41,5.01-.01,7.9-9.43,2.81-12.04-10-11.37-17.13ZM1126.9,796.75c3.87-4.05,7.83-2.98,11.63-4.22,17.37-5.69,31.45-10.45,49.4-13.94,4.47-.87,16.45.34,14.53,6.78-1.46,4.91-15.56,5.21-19.04,9.78,7.62,9,10.54,22.17-5.42,22.46-2.17.04-10.43-.53-12.35-.88-1.92-.35-4.5-2.62-4.33-4.77,11.43,1.87,25.74-6.35,11.55-15.9-12.61-.38-23.93,9.3-36.08,12.11-3.17.02-11.46-8.72-9.89-11.42ZM1025.8,862.06c.04,2-1.43,3.55-4.37,4.58l-1.88.66.15-1.87c-.15-.19-.9-.88-4.08-1.84l-.92-.28v-3.16l1.49.22c3.14.46,4.37.51,4.84.49,0-.04,0-.08,0-.14l-.08-4.15-10.5-.02c-1.26,0-2.4.13-3.4.37l-.66.16-4.53-3.98,18.97.03c-.04-.54-.09-1.13-.15-1.77l-.2-2.02h-4.3c-1.26,0-2.4.12-3.4.37l-.66.16-1.9-1.68c-.32.3-.71.52-1.18.66-1.04.29-1.44.33-1.67.33-.53,0-1.04-.13-1.48-.38-.25-.13-1.06-.57-1.06-1.48,0-.69.32-1.43,1.01-2.32.67-.84,1.17-2.37,1.5-4.54l.17-1.1h3.05l.19,1.67h2.12c-.11-.27-.19-.51-.24-.66-.4-1.36-1.41-3.09-3-5.17l-.87-1.14,2.33-1.45.68.4c4.84,2.82,5.73,4.22,5.96,5.22.29,1.28.07,2.19-.3,2.82h3.18c-.25-.39-.46-.93-.61-1.64-.3-1.41-1.07-3.09-2.26-4.99l-.7-1.12,2.44-1.48.65.62c4.36,2.95,5.08,4.37,5.2,5.38.21,1.73-.4,2.72-.97,3.24h1.94c1.65-3.06,2.83-5.82,3.52-8.21l.46-1.6,7.46,4.33-3.83,1.37c-1.2,1.49-2.27,2.84-3.27,4.12h4.67l2.04-2.22,5.42,5.31-2.2.59c-.89.24-1.76.58-2.58,1-1.02.53-1.97,1.2-2.81,1.99l-.48.57.66.69-2.04.61c-1,.3-1.99.65-2.94,1.04-1.67.68-3.28,1.52-4.82,2.48h0s8.33.03,8.33.03l2.93-2.67,6.91,6.11-18.06-.03.1,5.48ZM1103.83,845.53h-2.2s6,5.3,6,5.3l-10.01.06.56,8.42c.02.37.04.61,1.03.55l2.69-.02c.04-.11.09-.32.12-.69.08-1.24.12-2.68.12-4.28v-1.3h3.17l.08,1.22c.13,2,.36,3.08.53,3.64.11.35.3.7,1.01.89l1.42.38-.56,1.36c-.53,1.3-1.82,2.85-4.96,2.88l-5.06.03c-2.42-.11-3.93-1.36-4.22-3.42l-.64-9.62h-.9c-.09,4.59-1.24,7.9-3.43,9.84-2.26,2.02-5.47,3.49-9.53,4.37l-1.02.22-1.25-2.68,1.39-.45c3.16-1.03,5.51-2.45,7.01-4.21,1.27-1.5,1.97-3.87,2.09-7.06-1.1.04-2.13.17-3.07.39l-.49.12c.01.14.02.28.03.42.01,1.38-.41,2.58-1.27,3.59-.85,1-2.28,1.75-4.37,2.28l-1.51.38-.11-1.56c-.03-.41-.66-.8-1.72-1.09l.57,8.58-4.62,2.49-.07-2.1c-.11-3.25-.42-8.78-.93-16.43-.66-9.93-.94-12.73-1.05-13.52l-.36-2.57,4.18,2.3,4.66-.02,1.61-1.62,3.89,2.68h2.38l.25,1.35,4.78-.03c-.34-.83-.92-1.69-1.75-2.57l-.92-.98,1.97-1.71.76.36c3.08,1.43,3.86,2.13,4.23,2.63.52.72.75,1.2.8,1.64.02.21,0,.41-.02.61l4.28-.02,1.61-1.82,5.85,4.3-2.82.61c-.67.14-1.8.77-3.4,2.93l-.13.18,3.3,2.75ZM1102.8,787.45c.69,1,1.42,1.02.48,2.46-1.83,2.8-10.83,3.95-13.55,1.97-1.92-1.4-10.36-17.1-5.63-19.26h0s.01-.01.01-.01c3.37-.96,16.63,11.88,18.69,14.84ZM1008.17,768.71c9.62-1.79,19.92-8.62,28.32-11.03,4.69-1.35,10.74-.4,15.16-3.55.86-.95,1.82-5.5,2.06-7.06,1.06-7.04,1.09-17.03-1.06-23.69-.61-1.9-5.91-9.95-4.59-11.23,3.14.08,6.3-.52,9.35.72.57.23,9.1,7.35,9.37,7.9,2.19,4.39-1.86,7.62-2.1,11.17-.17,2.51.47,12.29,2.57,13.34,4.79,2.38,7.6-3.99,10.63-5.72,4.09-2.33,11.32-4,12.41,2.31-.93-.04-1.97.08-2.76.57-2.81,1.74-21.55,14.07-22.26,15.22-2.01,3.24-2.62,11.99-4.33,15.83-.43.97-5.72,7.82-6.66,8.7-2.28,2.13-19.09,9.73-22.29,10.34-3.72.71-9.48.39-8.9-4.57,12.49.56,19.19-11.98,26.39-20.16.91-1.94.89-3.49-.95-4.77-2.94,3.3-7.34,2.1-10.36,3.06-7.53,2.39-18.3,11.1-25.2,12.23-8.84,1.45-15.91-.88-16.74-10.51,3.86.55,7.99,1.64,11.94.9ZM956.38,864.27c-1.24,0-2.36.13-3.41.38l-.67.16-4.25-3.94h14.96l.08-3.19h-2.08c-1.24,0-2.36.13-3.41.38l-.67.16-1.7-1.58c-3.36,1.37-6.75,2.82-10.09,4.32l-2.05,1.82-4.48-4.82,2.46-.7c2.39-.58,4.2-1.05,5.42-1.39l.18-7.12c-1.03.03-1.97.15-2.87.38l-.67.16-4.25-3.94h7.87l.15-5.98c-1.15.01-2.19.14-3.18.38l-.67.16-4.25-3.94h12.49l2.42-2.16,2.26,2.21c0-.56,0-1.13-.01-1.69l-.02-2.36,3.64,2.33h11.85l1.5-1.72,4.67,3.45-2.2,1.48-.15,5.91c-.08,2.84-.08,5.16-.02,6.91l.03.89-2.47,1.02,5.52,5.41h-10.82l-.08,3.19h4.69l2.58-2.29,5.79,5.66-24.09.02ZM985.73,795.21c-6.54,11.12-22.29-4.8-17.24-13.88,1.42-1.01,21.87,6,17.24,13.88ZM945.97,709.39h0c1.5-.46,8.67-.42,10.39-.09,2.17.41,10.62,4.66,11.56,6.7,3.77,8.19-12.31,7.66-16.29,10.54-2.81-2.67-.61-6.6-2.19-10.32-.87-2.07-3.59-3.75-5.01-5.52.47-.48.87-1.1,1.55-1.31ZM935.54,742.15c4.23-1.47,10.62-2.26,14.69-3.55,7.95-2.52,15.45-6.47,23.92-7.26h0c3.05,2.97-9.39,7.46-11.03,8.64-9.52,6.88-11.58,14.02-26.65,11.29-7.37-1.34-8.44-6.51-.93-9.12ZM924.24,801.88c8.31-3.14,24.09-16.54,23.05-26.39l-7.74.42c-1.94,1.34-.1,7.26-1.4,10.12-.54,1.2-6.56,7.33-8.16,6.29-2.89-1.88-4.8-11.11-4.8-14.46,0-1.02,4.72-10.71,5.2-11.11,2.24-1.89,8.09-.25,11.39-1.09,6.71-1.71,13.85-9.81,20.61-11.06,2.03-.37,11.56-1.27,10.8,2.16-6.2,6.17-15.22,9.18-19.19,17.76h0v.02l12.48-1.91c.59,8.83-5.53,7-10.49,9.18-2.38,1.04-10.83,6.77-8.62,9.94,6.84.26,9.56,11.08,9.61,16.87.02,2.14-.35,4.18-1.14,6.15-1.83.46-3.49-.13-5.07-1s-6.83-6.61-6.4-8c5.11-1.97,2.24-8.37,2.91-12.99-1.66-.43-1.92.69-2.88,1.43-6.31,4.86-15.38,15.79-21.18,19.12-5.01,2.88-10.46.92-11.3-4.96-.76-5.33,8.78-5.15,12.33-6.49ZM901.16,833.61c0,.5-.23,1.18-1.33,1.58q-.61.23-1.01.83c-.54.81-1.15,1.69-1.85,2.64l10.32-.17,1.77-1.83,3.46,2.24h0c.72.47.83,1.09.83,1.42,0,.39-.15,1.1-1.16,1.54l-.74.34c-.71,6.37-1.46,11.59-2.06,14.4-.9,4.03-2.02,5.74-6.54,7.33-.31.13-1.89.69-2.43-1.1-.05-.19-.44-.72-3.77-1.41l-1.38-.29.34-1.34c-1.89,1.32-4.07,2.52-6.58,3.65l-1.14.51-1.46-2.66,1.16-.66c8.76-4.96,12.35-9.62,14.06-18.63l-1.1.02c-2.31,6.71-4.91,10.71-12.82,15.76l-.93.59-1.54-1.58c-.18,2.5-.27,4.37-.3,5.84l-.02.34c-.09,1.39-1.15,1.78-1.86,2.03-.33.12-.81.27-1.22.3h-.01c-.56,0-.99-.18-1.3-.52-.53-.57-.47-1.32-.44-1.64l.03-.37c.23-2.01.49-4.99.63-6.92l.17-2.4c-2.79,1.2-3.35,1.49-3.63,1.74l-.08.07c-.22.17-.59.45-1.12.45-.41,0-.8-.15-1.13-.43l-3.33-2.97,9.61-3.28.4-5.55-1.92.03c-.9,1.79-1.93,3.54-3.26,5.57l-.59.89-2.79-1.01.57-1.32c1.45-3.36,3.12-7.44,4.47-12.11l.42-1.46,3.65,1.54c.05-1.12.08-2.31.09-3.07l.02-2.05,4.77,2.09c.97.48,1.1,1.13,1.08,1.54-.03.67-.47,1.09-1.35,1.61l-.3,4.24h.08s2.26-2.34,2.26-2.34l2.21,2.41c1.79-2.72,3.34-5.5,4.54-8.16l.5-1.12,3.74,1.28c.97.27,1.32.96,1.32,1.52ZM852.39,735.78c1.04-2.2,2.08-4.79,4.18-6.18.48-.03,5.29,3.31,5.92,3.99h0s.01-.01.01-.01c1.24,1.34,5.67,9.36,5.94,10.95.46,2.77-4.52,11.24-.2,12.64,4.62,1.5,13.17-7.55,15.38-11.29l10.94-.61c7.16,6.22-5.54,17.05-11.05,17.78-4.95.65-9.67-1.92-13.07,3.3-1.85,2.84,1.55,3.08.94,5.58-.54,2.23-8.97,7.34-7.58,12.19,2.62-.1,5.33.34,7.94-.21,8.3-1.74,14.82-6.63,24.25-5.59,1.45.16,2.38.09,3.29,1.49-2.24,1.7-4.47,5.35-6.77,6.65-7.97,4.49-18.45,2.39-26.15,7.21-1.33.83-.52,2.97-3.98,3.02-4.59.07-12.2-8.98-13.99-13-7.01-15.77-3.18-32.8,4-47.91ZM784.52,779.24c.96-2.32,3.66-15.34,4.33-15.82,6.02-2.77,19.78,2.93,17.24,10.49-.77,2.3-4.55,1.29-6.66,2.01-5.77,1.98-12.54,10.77-16.76,14.91-3.9,3.83-8.02,2.72-6.14,10.48,4.38,2.17,4.86-1.08,6.43-1.75.97-.42,2.43-.23,3.75-.84,7.62-3.51,20.28-8.96,21.38-18.08.2-1.64-.86-3.36-.65-4.56.49-2.75,3.37-8.32,3.53-10.72.18-2.58-1.37-5.9-.96-9.58.37-3.28,2.39-6.82,2.79-10.65.49-4.68.51-10.71-2.31-14.72-1.73-2.47-15.71-9.97-4.77-9.66,3.53.1,17.53,7.95,18.52,11.26.99,3.31.64,25.9.23,30.55-1.14,12.96-7.31,25.66-13.05,36.86-2.04,3.97-2.15,10.87-8.1,10.61l1.91-13.43c-.79-.01-1.6-.08-2.4-.02-6.08.42-22.59,14.75-29.21,17.83-2.21.69-6.58,1.33-6.8-1.96-.73-11.11,13.54-23.22,17.7-33.21ZM580.68,851.81c1.47-7.62,14.47-2.68,19.93-5.02h0c5.12.19,12.04.01,16.93.72,5.78.84,12.01,4.58,19.12,2.96l1.44,1.44c1.95,8.12-4.41,9.34-10.92,9.93-7.83.71-33.13,1.21-40.07-.2-5.25-1.06-7.44-4.58-6.43-9.83ZM369.55,997.63c3.24,1,13.87,7.7,9.15,11.67h0s-.01,0-.01,0c-4.28,5.82-6.84,14.97-16.24,11.73-4.47-1.55-8.31-28.15,7.1-23.4ZM401.85,1069.36c-4.81,2.73-19.69,4.6-21.56,6.76h0c-1.54,1.77-2.46,9.84-8.17,8.26-1.98-.55-13.03-12.04-13.22-13.82-.47-4.37,10.02-5.57,13.4-7.71,1.65-1.05,4.45-4.96,5.49-5.14,1.5-.25,2.44,2.18,3.9,2.63,6.9,2.13,9.21-1.85,14.21-4.58,7.24,2.98,17.3,7.16,5.95,13.6ZM463.51,1036.97c-.43,2.31-2.45,3.35-2.86,6.73-.56,4.58,1.65,17.44-1.59,19.52-10.11,6.5-8.93-2.73-10.31-8.53-.6-2.51-2.72-4.66-3.21-7.34s-.71-12.6-.02-14.94c.64-2.15,6.07-5.98,8.14-7.22,1.7-1.01,8.64-4.81,9.8-2.95h-.01c.38.63.36,13.16.06,14.73ZM483.72,916.09c0,4.02.82,16.49,0,19.19h0c-1.47,4.81-12.67-3.46-12.28-7.53.19-2.07,3.03-3.82,3.87-5.67,1.61-3.53,2.55-10.36,3.83-13.44,1.15-2.78,4.27-8.25,7.72-7.28,8.61,2.42-3.15,12.74-3.15,14.73Z"/>
    <path class="st3" d="M1086.59,846l-.61.15-3.31-2.59c-.16,0-.32,0-.48-.01-1.81-.15-1.95-1.46-1.96-1.72-.04-.68.26-1.41.89-2.13.39-.52.67-1.33.81-2.4l-.74.4-3.2,6.17c1.74,1.31,3.07,2.54,3.96,3.69l17.14-.1,2.15-1.91-11.08.07c-1.29,0-2.49.13-3.58.39Z"/>
    <path class="st3" d="M1077.43,852.48c.82,0,1.16-.18,1.28-.26,0,0,.09-.2.06-.76-.04-.71-.34-1.48-.87-2.28-.61-.91-1.73-2.27-3.34-4.05l-.48-.53.5,7.65c1.38.16,2.31.24,2.86.23Z"/>
    <polygon class="st3" points="1073.61 837.67 1074.06 844.55 1076.16 837.66 1073.61 837.67"/>
    <path class="st3" d="M1085.38,842.23l9.94-.06,2.16-1.93.61.51.28-.76-12.55.07c0,.09.02.17.02.25.03.58-.03,1.05-.19,1.45-.07.17-.15.32-.27.47Z"/>
  </g>
  <path class="st1" d="M941.73,893.54"/>
</svg>